<svg width="24" height="24" viewBox="0 0 24 24" fill="none" xmlns="http://www.w3.org/2000/svg">
<path d="M20.4853 3.51471C18.2188 1.24823 15.2053 0 12 0C8.79474 0 5.78119 1.24823 3.51471 3.51471C1.24823 5.78119 0 8.79474 0 12C0 15.2054 1.24823 18.2188 3.51471 20.4853C5.78119 22.7518 8.79474 24 12 24C15.2053 24 18.2188 22.7518 20.4853 20.4853C22.7518 18.2188 24 15.2054 24 12C24 8.79474 22.7518 5.78119 20.4853 3.51471Z" fill="#D0D0D9"/>
<path d="M17.1906 15.5328C17.6482 15.9906 17.6482 16.7325 17.1906 17.1901C16.9617 17.419 16.6618 17.5334 16.3619 17.5334C16.0619 17.5334 15.762 17.419 15.5331 17.1901L12.0003 13.6573L8.46745 17.1903C8.23857 17.419 7.93864 17.5334 7.63872 17.5334C7.33879 17.5334 7.03886 17.419 6.80998 17.1903C6.3524 16.7325 6.3524 15.9906 6.80998 15.533L10.343 12L6.80998 8.46716C6.3524 8.0094 6.3524 7.26746 6.80998 6.80988C7.26775 6.35211 8.00969 6.35211 8.46727 6.80988L12.0003 10.3427L15.5331 6.80988C15.9909 6.35229 16.7328 6.35211 17.1904 6.80988C17.6482 7.26746 17.6482 8.0094 17.1904 8.46716L13.6576 12L17.1906 15.5328Z" fill="#B5B5C0"/>
</svg>
