<svg width="36" height="36" viewBox="0 0 36 36" fill="none" xmlns="http://www.w3.org/2000/svg">
<g filter="url(#filter0_d)">
<rect x="6" y="5" width="24" height="24" rx="4" fill="white" stroke="black" stroke-width="2.66667"/>
<g clip-path="url(#clip0)">
<rect x="6" y="5" width="24" height="24" rx="4" fill="white"/>
<rect x="6" y="5" width="24" height="24" rx="4" fill="#DB0B24" stroke="black" stroke-width="2.66667"/>
<mask id="path-4-outside-1" maskUnits="userSpaceOnUse" x="9.5" y="8.40002" width="23" height="23" fill="black">
<rect fill="white" x="9.5" y="8.40002" width="23" height="23"/>
<path fill-rule="evenodd" clip-rule="evenodd" d="M24.7 11.4C24.5895 11.4 24.5 11.4896 24.5 11.6V15.4C24.5 15.5105 24.4105 15.6 24.3 15.6H20.7C20.5895 15.6 20.5 15.6896 20.5 15.8V19.6C20.5 19.7105 20.4105 19.8 20.3 19.8L16.7 19.8C16.5895 19.8 16.5 19.8896 16.5 20L16.5 23.8C16.5 23.9105 16.4105 24 16.3 24L12.7 24C12.5895 24 12.5 24.0896 12.5 24.2V28C12.5 28.1105 12.5895 28.2 12.7 28.2H29.3C29.4105 28.2 29.5 28.1105 29.5 28V24V19.8V15.6V11.6C29.5 11.4896 29.4105 11.4 29.3 11.4H24.7Z"/>
</mask>
<path fill-rule="evenodd" clip-rule="evenodd" d="M24.7 11.4C24.5895 11.4 24.5 11.4896 24.5 11.6V15.4C24.5 15.5105 24.4105 15.6 24.3 15.6H20.7C20.5895 15.6 20.5 15.6896 20.5 15.8V19.6C20.5 19.7105 20.4105 19.8 20.3 19.8L16.7 19.8C16.5895 19.8 16.5 19.8896 16.5 20L16.5 23.8C16.5 23.9105 16.4105 24 16.3 24L12.7 24C12.5895 24 12.5 24.0896 12.5 24.2V28C12.5 28.1105 12.5895 28.2 12.7 28.2H29.3C29.4105 28.2 29.5 28.1105 29.5 28V24V19.8V15.6V11.6C29.5 11.4896 29.4105 11.4 29.3 11.4H24.7Z" fill="white"/>
<path d="M12.7 24L12.7 21.3334L12.7 24ZM16.3 24L16.3 26.6667L16.3 24ZM16.7 19.8L16.7 17.1334L16.7 19.8ZM16.5 20H19.1667H16.5ZM20.3 19.8L20.3 17.1334L20.3 19.8ZM27.1667 15.4V11.6H21.8333V15.4H27.1667ZM20.7 18.2667H24.3V12.9334H20.7V18.2667ZM23.1667 19.6V15.8H17.8333V19.6H23.1667ZM16.7 22.4667L20.3 22.4667L20.3 17.1334L16.7 17.1334L16.7 22.4667ZM19.1667 23.8V20H13.8333L13.8333 23.8L19.1667 23.8ZM12.7 26.6667L16.3 26.6667L16.3 21.3334L12.7 21.3334L12.7 26.6667ZM15.1667 28V24.2H9.83333V28H15.1667ZM29.3 25.5334H12.7V30.8667H29.3V25.5334ZM26.8333 24V28H32.1667V24H26.8333ZM26.8333 19.8V24H32.1667V19.8H26.8333ZM26.8333 15.6V19.8H32.1667V15.6H26.8333ZM26.8333 11.6V15.6H32.1667V11.6H26.8333ZM24.7 14.0667H29.3V8.73336H24.7V14.0667ZM29.3 30.8667C30.8832 30.8667 32.1667 29.5832 32.1667 28H26.8333C26.8333 26.6377 27.9377 25.5334 29.3 25.5334V30.8667ZM9.83333 28C9.83333 29.5833 11.1168 30.8667 12.7 30.8667V25.5334C14.0623 25.5334 15.1667 26.6377 15.1667 28H9.83333ZM12.7 21.3334C11.1168 21.3334 9.83333 22.6168 9.83333 24.2H15.1667C15.1667 25.5623 14.0623 26.6667 12.7 26.6667L12.7 21.3334ZM13.8333 23.8C13.8333 22.4377 14.9377 21.3334 16.3 21.3334L16.3 26.6667C17.8832 26.6667 19.1667 25.3832 19.1667 23.8L13.8333 23.8ZM16.7 17.1334C15.1168 17.1334 13.8333 18.4168 13.8333 20H19.1667C19.1667 21.3623 18.0623 22.4667 16.7 22.4667L16.7 17.1334ZM17.8333 19.6C17.8333 18.2377 18.9377 17.1334 20.3 17.1334L20.3 22.4667C21.8832 22.4667 23.1667 21.1832 23.1667 19.6H17.8333ZM20.7 12.9334C19.1168 12.9334 17.8333 14.2168 17.8333 15.8H23.1667C23.1667 17.1623 22.0623 18.2667 20.7 18.2667V12.9334ZM32.1667 11.6C32.1667 10.0168 30.8832 8.73336 29.3 8.73336V14.0667C27.9377 14.0667 26.8333 12.9623 26.8333 11.6H32.1667ZM27.1667 11.6C27.1667 12.9623 26.0623 14.0667 24.7 14.0667V8.73336C23.1168 8.73336 21.8333 10.0168 21.8333 11.6H27.1667ZM21.8333 15.4C21.8333 14.0377 22.9377 12.9334 24.3 12.9334V18.2667C25.8832 18.2667 27.1667 16.9832 27.1667 15.4H21.8333Z" fill="black" mask="url(#path-4-outside-1)"/>
<path d="M7 6L29 28" stroke="black" stroke-width="3"/>
</g>
<rect x="6" y="5" width="24" height="24" rx="4" stroke="black" stroke-width="2.66667" stroke-linejoin="round"/>
</g>
<defs>
<filter id="filter0_d" x="-2" y="-2" width="40" height="40" filterUnits="userSpaceOnUse" color-interpolation-filters="sRGB">
<feFlood flood-opacity="0" result="BackgroundImageFix"/>
<feColorMatrix in="SourceAlpha" type="matrix" values="0 0 0 0 0 0 0 0 0 0 0 0 0 0 0 0 0 0 127 0" result="hardAlpha"/>
<feOffset dy="1"/>
<feGaussianBlur stdDeviation="2"/>
<feColorMatrix type="matrix" values="0 0 0 0 0 0 0 0 0 0 0 0 0 0 0 0 0 0 0.35 0"/>
<feBlend mode="normal" in2="BackgroundImageFix" result="effect1_dropShadow"/>
<feBlend mode="normal" in="SourceGraphic" in2="effect1_dropShadow" result="shape"/>
</filter>
<clipPath id="clip0">
<rect x="6" y="5" width="24" height="24" rx="4" fill="white"/>
</clipPath>
</defs>
</svg>
