<svg width="36" height="36" viewBox="0 0 36 36" fill="none" xmlns="http://www.w3.org/2000/svg">
<g filter="url(#filter0_d)">
<g clip-path="url(#clip0)">
<rect x="6" y="5" width="24" height="24" rx="4" fill="white"/>
<rect x="6" y="5" width="24" height="24" rx="4" fill="#DB0B24" stroke="black" stroke-width="2.66667"/>
<path d="M32 29V16.474C32 14.9322 30.3291 13.9702 28.9957 14.7444L7.42316 27.2704C5.65589 28.2966 6.38384 31 8.42743 31H30C31.1046 31 32 30.1046 32 29Z" fill="white" stroke="black" stroke-width="2.66667" stroke-linejoin="round"/>
</g>
<rect x="6" y="5" width="24" height="24" rx="4" stroke="black" stroke-width="2.66667" stroke-linejoin="round"/>
<path fill-rule="evenodd" clip-rule="evenodd" d="M13.5295 9.5741C13.0264 9.44125 12.6524 9.98464 12.9236 10.4544L13.8407 12.0428L10.9821 13.6932C10.5038 13.9694 10.3399 14.581 10.6161 15.0592L11.478 16.5522C11.7542 17.0305 12.3658 17.1943 12.8441 16.9182L15.7026 15.2678L16.7395 17.0638C17.0107 17.5335 17.6683 17.4813 17.8048 16.9792L19.0545 12.3819C19.2385 11.7052 18.8137 10.9695 18.1357 10.7905L13.5295 9.5741Z" fill="black"/>
</g>
<defs>
<filter id="filter0_d" x="-2" y="-2" width="40" height="40" filterUnits="userSpaceOnUse" color-interpolation-filters="sRGB">
<feFlood flood-opacity="0" result="BackgroundImageFix"/>
<feColorMatrix in="SourceAlpha" type="matrix" values="0 0 0 0 0 0 0 0 0 0 0 0 0 0 0 0 0 0 127 0" result="hardAlpha"/>
<feOffset dy="1"/>
<feGaussianBlur stdDeviation="2"/>
<feColorMatrix type="matrix" values="0 0 0 0 0 0 0 0 0 0 0 0 0 0 0 0 0 0 0.35 0"/>
<feBlend mode="normal" in2="BackgroundImageFix" result="effect1_dropShadow"/>
<feBlend mode="normal" in="SourceGraphic" in2="effect1_dropShadow" result="shape"/>
</filter>
<clipPath id="clip0">
<rect x="6" y="5" width="24" height="24" rx="4" fill="white"/>
</clipPath>
</defs>
</svg>
