<svg width="26" height="26" viewBox="0 0 26 26" fill="none" xmlns="http://www.w3.org/2000/svg">
<mask id="path-1-outside-1" maskUnits="userSpaceOnUse" x="0.363281" y="0.500183" width="26" height="25" fill="black">
<rect fill="white" x="0.363281" y="0.500183" width="26" height="25"/>
<path fill-rule="evenodd" clip-rule="evenodd" d="M16.7636 15.1512C18.4562 13.8008 19.5627 11.5642 19.5627 9.03352C19.5627 4.90979 16.6246 2.50018 13.0002 2.50018C9.37587 2.50018 6.43774 4.90979 6.43774 9.03352C6.43774 11.5638 7.54394 13.8002 9.23612 15.1506L3.77877 18.2691C1.28579 19.6937 2.29667 23.5002 5.16796 23.5002H20.8308C23.7021 23.5002 24.713 19.6937 22.22 18.2691L16.7636 15.1512Z"/>
</mask>
<path d="M16.7636 15.1512L15.641 13.7441C15.1747 14.1162 14.923 14.6951 14.969 15.2899C15.015 15.8847 15.3526 16.418 15.8706 16.714L16.7636 15.1512ZM9.23612 15.1506L10.1292 16.7135C10.6471 16.4175 10.9848 15.8842 11.0308 15.2894C11.0768 14.6947 10.8252 14.1158 10.3589 13.7437L9.23612 15.1506ZM3.77877 18.2691L2.88572 16.7063H2.88572L3.77877 18.2691ZM22.22 18.2691L23.113 16.7063H23.113L22.22 18.2691ZM17.7627 9.03352C17.7627 11.0472 16.8821 12.754 15.641 13.7441L17.8862 16.5582C20.0303 14.8476 21.3627 12.0812 21.3627 9.03352H17.7627ZM13.0002 4.30018C14.416 4.30018 15.5959 4.76773 16.4069 5.53113C17.2015 6.27914 17.7627 7.42286 17.7627 9.03352H21.3627C21.3627 6.52045 20.4549 4.3975 18.8744 2.90977C17.3102 1.43744 15.2088 0.700183 13.0002 0.700183V4.30018ZM8.23774 9.03352C8.23774 7.42286 8.79893 6.27914 9.59359 5.53113C10.4046 4.76773 11.5845 4.30018 13.0002 4.30018V0.700183C10.7916 0.700183 8.69026 1.43744 7.12611 2.90977C5.54561 4.3975 4.63774 6.52045 4.63774 9.03352H8.23774ZM10.3589 13.7437C9.1181 12.7535 8.23774 11.0469 8.23774 9.03352H4.63774C4.63774 12.0807 5.96979 14.8468 8.11334 16.5575L10.3589 13.7437ZM8.34307 13.5878L2.88572 16.7063L4.67182 19.8319L10.1292 16.7135L8.34307 13.5878ZM2.88572 16.7063C-1.20989 19.0466 0.450832 25.3002 5.16796 25.3002V21.7002C4.1425 21.7002 3.78147 20.3407 4.67182 19.8319L2.88572 16.7063ZM5.16796 25.3002H20.8308V21.7002H5.16796V25.3002ZM20.8308 25.3002C25.5479 25.3002 27.2087 19.0466 23.113 16.7063L21.3269 19.8319C22.2173 20.3407 21.8563 21.7002 20.8308 21.7002V25.3002ZM23.113 16.7063L17.6567 13.5883L15.8706 16.714L21.3269 19.8319L23.113 16.7063Z" fill="#1D85FF" mask="url(#path-1-outside-1)"/>
</svg>
