<svg width="230" height="220" viewBox="0 0 230 220" fill="none" xmlns="http://www.w3.org/2000/svg">
<g filter="url(#filter0_d)">
<path d="M158.9 138.5L170.5 150.1C174.5 154.1 174.5 160.5 170.5 164.5C166.5 168.5 160.1 168.5 156.1 164.5L144.4 153" fill="#FF4794"/>
<path d="M158.9 138.5L170.5 150.1C174.5 154.1 174.5 160.5 170.5 164.5C166.5 168.5 160.1 168.5 156.1 164.5L144.4 153" stroke="black" stroke-width="3" stroke-miterlimit="10" stroke-linecap="round"/>
<path d="M202.5 190.5C213.27 190.5 222 181.546 222 170.5C222 159.454 213.27 150.5 202.5 150.5C191.73 150.5 183 159.454 183 170.5C183 181.546 191.73 190.5 202.5 190.5Z" fill="#FFEE93" stroke="black" stroke-width="3" stroke-miterlimit="10" stroke-linecap="round"/>
<path d="M202.5 163.2C203.66 163.2 204.6 162.26 204.6 161.1C204.6 159.94 203.66 159 202.5 159C201.341 159 200.4 159.94 200.4 161.1C200.4 162.26 201.341 163.2 202.5 163.2Z" fill="black"/>
<path d="M207.201 158.4C208.36 158.4 209.301 157.46 209.301 156.3C209.301 155.14 208.36 154.2 207.201 154.2C206.041 154.2 205.101 155.14 205.101 156.3C205.101 157.46 206.041 158.4 207.201 158.4Z" fill="black"/>
<path d="M219.4 160.5C219.2 159.2 218.1 158.1 216.8 157.9C215.1 157.6 213.6 158.6 213.1 160C212.9 160.5 212.4 160.8 211.9 160.8C210.9 160.7 209.7 161.1 208.3 162.6C207.5 163.4 207 164.5 207 165.6C207 168.2 209.1 170.4 211.8 170.4C212.9 170.4 214 169.9 214.8 169.1C216.3 167.7 216.6 166.5 216.6 165.4C216.6 164.9 216.9 164.4 217.4 164.2C218.8 163.7 219.8 162.2 219.4 160.5Z" fill="#FE8AAC" stroke="black" stroke-width="3" stroke-miterlimit="10" stroke-linecap="round"/>
<path fill-rule="evenodd" clip-rule="evenodd" d="M168.5 174.7V170.4C168.5 155.8 180.4 143.9 195 143.9V174.7H221.5V179.5C221.5 194.1 209.6 206 195 206C180.4 206 168.5 194.1 168.5 179.5V175.2V174.7Z" fill="white"/>
<path d="M195 143.9H196.5V142.4H195V143.9ZM195 174.7H193.5V176.2H195V174.7ZM221.5 174.7H223V173.2H221.5V174.7ZM170 174.7V170.4H167V174.7H170ZM170 170.4C170 156.628 181.228 145.4 195 145.4V142.4C179.572 142.4 167 154.971 167 170.4H170ZM193.5 143.9V174.7H196.5V143.9H193.5ZM195 176.2H221.5V173.2H195V176.2ZM220 174.7V179.5H223V174.7H220ZM220 179.5C220 193.272 208.772 204.5 195 204.5V207.5C210.428 207.5 223 194.928 223 179.5H220ZM195 204.5C181.228 204.5 170 193.272 170 179.5H167C167 194.928 179.572 207.5 195 207.5V204.5ZM170 179.5V175.2H167V179.5H170ZM170 175.2V174.7H167V175.2H170Z" fill="black"/>
<path fill-rule="evenodd" clip-rule="evenodd" d="M173 175.468V171.48C173 157.938 183.701 146.9 196.83 146.9V175.468H220.659V179.92C220.659 193.462 209.959 204.5 196.83 204.5C183.701 204.5 173 193.462 173 179.92V175.932V175.468Z" fill="#FFC01E"/>
<path d="M195 143.9H196.5V142.4H195V143.9ZM195 174.7H193.5V176.2H195V174.7ZM221.5 174.7H223V173.2H221.5V174.7ZM170 174.7V170.4H167V174.7H170ZM170 170.4C170 156.628 181.228 145.4 195 145.4V142.4C179.572 142.4 167 154.971 167 170.4H170ZM193.5 143.9V174.7H196.5V143.9H193.5ZM195 176.2H221.5V173.2H195V176.2ZM220 174.7V179.5H223V174.7H220ZM220 179.5C220 193.272 208.772 204.5 195 204.5V207.5C210.428 207.5 223 194.928 223 179.5H220ZM195 204.5C181.228 204.5 170 193.272 170 179.5H167C167 194.928 179.572 207.5 195 207.5V204.5ZM170 179.5V175.2H167V179.5H170ZM170 175.2V174.7H167V175.2H170Z" fill="black"/>
<path d="M197.5 175H188.5V146.5C188.5 144 190.5 142 193 142C195.5 142 197.5 144 197.5 146.5V175Z" fill="#FF9D0A" stroke="black" stroke-width="3" stroke-miterlimit="10" stroke-linecap="round"/>
<path d="M179.5 212.1C184.526 212.1 188.6 208.026 188.6 203C188.6 197.974 184.526 193.9 179.5 193.9C174.475 193.9 170.4 197.974 170.4 203C170.4 208.026 174.475 212.1 179.5 212.1Z" fill="#6A6A73" stroke="black" stroke-width="3" stroke-miterlimit="10"/>
<path d="M179.501 204.9C180.55 204.9 181.401 204.049 181.401 203C181.401 201.951 180.55 201.1 179.501 201.1C178.451 201.1 177.601 201.951 177.601 203C177.601 204.049 178.451 204.9 179.501 204.9Z" fill="black" stroke="black" stroke-width="2" stroke-miterlimit="10"/>
<path d="M217.5 202.9L202.6 173.5C198.4 165.3 190 160.1 180.9 160.1L161.7 160V166L180.3 166.1C187.6 166.2 194.3 170.3 197.6 176.8L212.4 205.8" fill="white"/>
<path d="M217.5 202.9L202.6 173.5C198.4 165.3 190 160.1 180.9 160.1L161.7 160V166L180.3 166.1C187.6 166.2 194.3 170.3 197.6 176.8L212.4 205.8" stroke="black" stroke-width="3" stroke-miterlimit="10"/>
<path d="M214.5 212.3C219.526 212.3 223.6 208.226 223.6 203.2C223.6 198.174 219.526 194.1 214.5 194.1C209.475 194.1 205.4 198.174 205.4 203.2C205.4 208.226 209.475 212.3 214.5 212.3Z" fill="#6A6A73" stroke="black" stroke-width="3" stroke-miterlimit="10"/>
<path d="M214.501 205.1C215.55 205.1 216.401 204.249 216.401 203.2C216.401 202.151 215.55 201.3 214.501 201.3C213.451 201.3 212.601 202.151 212.601 203.2C212.601 204.249 213.451 205.1 214.501 205.1Z" fill="black" stroke="black" stroke-width="2" stroke-miterlimit="10"/>
<path d="M125.6 196.1H123.4V169.4H104.2V202.7C104.2 208.2 108.7 212.6 114.1 212.6H123.4H125.9C130.6 212.6 134.3 208.8 134.2 204.1C134.1 199.6 130.1 196.1 125.6 196.1Z" fill="#FF4794" stroke="black" stroke-width="3" stroke-miterlimit="10" stroke-linecap="round"/>
<path d="M169.5 118C169.5 82.4 140.6 53.5 105 53.5C69.4 53.5 40.5 82.4 40.5 118C40.5 147.6 60.4 172.4 87.5 180.1V202.8C87.5 208.3 92 212.7 97.4 212.7H106.7H109.2C113.9 212.7 117.6 208.9 117.5 204.2C117.4 199.7 113.4 196.2 108.9 196.2H106.7V182.5C141.5 181.5 169.5 153 169.5 118ZM105 105.5C111.9 105.5 117.5 111.1 117.5 118C117.5 124.9 111.9 130.5 105 130.5C98.1 130.5 92.5 124.9 92.5 118C92.5 111.1 98.1 105.5 105 105.5Z" fill="white" stroke="black" stroke-width="3" stroke-miterlimit="10" stroke-linecap="round"/>
<path d="M170 120.798C170 86.1376 141.772 58 107 58C72.2279 58 44 86.1376 44 120.798C44 149.617 55 173 92.907 181.26V203.361C92.907 208.716 97.3023 213 102.577 213H108.66H111.102C115.693 213 119.307 209.3 119.209 204.724C119.112 200.343 115.205 196.935 110.809 196.935H108.66V183.597C142.651 182.623 170 154.875 170 120.798ZM107 104.628C113.74 104.628 120.209 114.08 120.209 120.798C120.209 127.516 113.74 132.969 107 132.969C100.26 132.969 91.7907 123.516 91.7907 116.798C91.7907 110.08 100.26 104.628 107 104.628Z" fill="#FF4794"/>
<path d="M169.5 118.5C169.5 82.9 140.6 54 105 54C69.4 54 40.5 82.9 40.5 118.5C40.5 148.1 60.4 172.9 87.5 180.6V203.3C87.5 208.8 92 213.2 97.4 213.2H106.7H109.2C113.9 213.2 117.6 209.4 117.5 204.7C117.4 200.2 113.4 196.7 108.9 196.7H106.7V183C141.5 182 169.5 153.5 169.5 118.5ZM105 106C111.9 106 117.5 111.6 117.5 118.5C117.5 125.4 111.9 131 105 131C98.1 131 92.5 125.4 92.5 118.5C92.5 111.6 98.1 106 105 106Z" stroke="black" stroke-width="3" stroke-miterlimit="10" stroke-linecap="round"/>
<path d="M111.3 84.1999C112.625 84.1999 113.7 83.1254 113.7 81.7999C113.7 80.4744 112.625 79.3999 111.3 79.3999C109.974 79.3999 108.9 80.4744 108.9 81.7999C108.9 83.1254 109.974 84.1999 111.3 84.1999Z" fill="black"/>
<path d="M122.1 84.1999C123.425 84.1999 124.5 83.1254 124.5 81.7999C124.5 80.4744 123.425 79.3999 122.1 79.3999C120.774 79.3999 119.7 80.4744 119.7 81.7999C119.7 83.1254 120.774 84.1999 122.1 84.1999Z" fill="black"/>
<path d="M124 94.2C119.8 90 112.9 90 108.7 94.2" stroke="black" stroke-width="3" stroke-miterlimit="10" stroke-linecap="round"/>
<path d="M108.8 70.2C113 74.4 119.9 74.4 124.1 70.2" stroke="#E0156A" stroke-width="3" stroke-miterlimit="10" stroke-linecap="round"/>
<path d="M164.2 169.6H151C148.3 169.6 146.1 167.4 146.1 164.7V161.5C146.1 158.8 148.3 156.6 151 156.6H164.2C166.9 156.6 169.1 158.8 169.1 161.5V164.7C169.1 167.4 166.9 169.6 164.2 169.6Z" fill="black" stroke="black" stroke-width="2" stroke-miterlimit="10"/>
<path d="M148.9 148.5L160.5 160.1C164.5 164.1 164.5 170.5 160.5 174.5C156.5 178.5 150.1 178.5 146.1 174.5L134.4 163" fill="#FF4794"/>
<path d="M148.9 148.5L160.5 160.1C164.5 164.1 164.5 170.5 160.5 174.5C156.5 178.5 150.1 178.5 146.1 174.5L134.4 163" stroke="black" stroke-width="3" stroke-miterlimit="10" stroke-linecap="round"/>
<path d="M50.1002 196.6H47.9002V169.9H28.7002V203.2C28.7002 208.7 33.2002 213.1 38.6002 213.1H47.9002H50.4002C55.1002 213.1 58.8002 209.3 58.7002 204.6C58.6002 200.1 54.6002 196.6 50.1002 196.6Z" fill="white" stroke="black" stroke-width="3" stroke-miterlimit="10" stroke-linecap="round"/>
<path d="M50.3322 195.75H48.4989V177.5H34.5V205.25C34.5 209.833 38.2498 213.5 42.7495 213.5H48.4989H50.5821C54.4986 213.5 58.5833 208.417 58.5 204.5C58.4167 200.75 54.0819 195.75 50.3322 195.75Z" fill="#FFC01E"/>
<path d="M50.1002 196.6H47.9002V169.9H28.7002V203.2C28.7002 208.7 33.2002 213.1 38.6002 213.1H47.9002H50.4002C55.1002 213.1 58.8002 209.3 58.7002 204.6C58.6002 200.1 54.6002 196.6 50.1002 196.6Z" stroke="black" stroke-width="3" stroke-miterlimit="10" stroke-linecap="round"/>
<path d="M72 99.4V45C72 27.9 58.1 14 41 14C23.9 14 10 27.9 10 45V170V184V203.2C10 208.7 14.5 213.1 19.9 213.1H29.2H31.7C36.4 213.1 40.1 209.3 40 204.6C39.9 200.1 35.9 196.6 31.4 196.6H29.2V184H37H42H55C79.3 184 99 164.3 99 140C99 121.7 87.9 106.1 72 99.4Z" fill="white" stroke="black" stroke-width="3" stroke-miterlimit="10" stroke-linecap="round"/>
<path d="M72.6236 101.141V47.8616C72.6236 31.1138 59.8169 17.5 44.0618 17.5C28.3067 17.5 15.5 31.1138 15.5 47.8616V170.288V183.999V202.804C15.5 208.191 19.6461 212.5 24.6213 212.5H33.1899H35.4933C39.8236 212.5 43.2326 208.778 43.1404 204.175C43.0483 199.768 39.3629 196.34 35.2169 196.34H28.3089V183.999H40.3764H44.9831H56.9607C79.3494 183.999 97.5 164.705 97.5 140.905C97.5 122.982 87.273 107.703 72.6236 101.141Z" fill="#FFC01E"/>
<path d="M72 99.4V45C72 27.9 58.1 14 41 14C23.9 14 10 27.9 10 45V170V184V203.2C10 208.7 14.5 213.1 19.9 213.1H29.2H31.7C36.4 213.1 40.1 209.3 40 204.6C39.9 200.1 35.9 196.6 31.4 196.6H29.2V184H37H42H55C79.3 184 99 164.3 99 140C99 121.7 87.9 106.1 72 99.4Z" stroke="black" stroke-width="3" stroke-miterlimit="10" stroke-linecap="round"/>
<path d="M45.7999 133.4V147.8C45.7999 153.4 41.1999 158 35.5999 158C29.9999 158 25.3999 153.4 25.3999 147.8V133.4" fill="#FFC01E"/>
<path d="M45.7999 133.4V147.8C45.7999 153.4 41.1999 158 35.5999 158C29.9999 158 25.3999 153.4 25.3999 147.8V133.4" stroke="black" stroke-width="3" stroke-miterlimit="10" stroke-linecap="round"/>
<path d="M48.7999 55.6999C50.1254 55.6999 51.1999 54.6254 51.1999 53.2999C51.1999 51.9744 50.1254 50.8999 48.7999 50.8999C47.4744 50.8999 46.3999 51.9744 46.3999 53.2999C46.3999 54.6254 47.4744 55.6999 48.7999 55.6999Z" fill="black"/>
<path d="M59.5997 55.6999C60.9252 55.6999 61.9997 54.6254 61.9997 53.2999C61.9997 51.9744 60.9252 50.8999 59.5997 50.8999C58.2742 50.8999 57.1997 51.9744 57.1997 53.2999C57.1997 54.6254 58.2742 55.6999 59.5997 55.6999Z" fill="black"/>
<path d="M61.4998 68.7C57.2998 64.5 50.4998 64.5 46.2998 68.7" stroke="black" stroke-width="3" stroke-miterlimit="10" stroke-linecap="round"/>
</g>
<defs>
<filter id="filter0_d" x="4.5" y="9.5" width="224.6" height="210.2" filterUnits="userSpaceOnUse" color-interpolation-filters="sRGB">
<feFlood flood-opacity="0" result="BackgroundImageFix"/>
<feColorMatrix in="SourceAlpha" type="matrix" values="0 0 0 0 0 0 0 0 0 0 0 0 0 0 0 0 0 0 127 0"/>
<feOffset dy="1"/>
<feGaussianBlur stdDeviation="2"/>
<feColorMatrix type="matrix" values="0 0 0 0 0 0 0 0 0 0 0 0 0 0 0 0 0 0 0.45 0"/>
<feBlend mode="normal" in2="BackgroundImageFix" result="effect1_dropShadow"/>
<feBlend mode="normal" in="SourceGraphic" in2="effect1_dropShadow" result="shape"/>
</filter>
</defs>
</svg>
