<svg width="375" height="360" viewBox="0 0 375 360" fill="none" xmlns="http://www.w3.org/2000/svg">
<g clip-path="url(#clip0)">
<path d="M375 0H0V360H375V0Z" fill="#1D85FF"/>
<path d="M356 120H336V100H316V80H296V60H276V40H256V20H236V0H374.9V140.9L356.45 141.45L356 120Z" fill="white"/>
<g filter="url(#filter0_d)">
<path d="M-174 310.1H236.5V290.1H256.5V270.1H276.5V250.1H296.5V230.1H316.5V210.1H336.5V190.1H356.5V170.1H376.5V150.1H388V379.6H-174" fill="#67AEFF"/>
<path d="M-174 310.1H236.5V290.1H256.5V270.1H276.5V250.1H296.5V230.1H316.5V210.1H336.5V190.1H356.5V170.1H376.5V150.1H388V379.6H-174" stroke="white" stroke-width="3" stroke-miterlimit="10" stroke-linejoin="round"/>
</g>
</g>
<defs>
<filter id="filter0_d" x="-178" y="146.6" width="571.5" height="240.5" filterUnits="userSpaceOnUse" color-interpolation-filters="sRGB">
<feFlood flood-opacity="0" result="BackgroundImageFix"/>
<feColorMatrix in="SourceAlpha" type="matrix" values="0 0 0 0 0 0 0 0 0 0 0 0 0 0 0 0 0 0 127 0"/>
<feOffset dy="2"/>
<feGaussianBlur stdDeviation="2"/>
<feColorMatrix type="matrix" values="0 0 0 0 0 0 0 0 0 0 0 0 0 0 0 0 0 0 0.45 0"/>
<feBlend mode="normal" in2="BackgroundImageFix" result="effect1_dropShadow"/>
<feBlend mode="normal" in="SourceGraphic" in2="effect1_dropShadow" result="shape"/>
</filter>
<clipPath id="clip0">
<rect width="375" height="360" fill="white"/>
</clipPath>
</defs>
</svg>
