<svg width="267" height="267" viewBox="0 0 267 267" fill="none" xmlns="http://www.w3.org/2000/svg">
<g filter="url(#filter0_d)">
<path d="M248.142 35.2644L248.152 35.2672L248.162 35.2698C249.946 35.7537 249.946 38.2463 248.162 38.7302L248.152 38.7328L248.142 38.7356C246.539 39.1937 245.151 40.4384 244.725 42.1792C244.23 43.946 241.752 43.9403 241.27 42.1618L241.267 42.152L241.264 42.1423C240.806 40.5391 239.562 39.1514 237.821 38.7254C236.054 38.2301 236.06 35.7521 237.838 35.2698L237.848 35.2672L237.858 35.2644C239.461 34.8063 240.849 33.5616 241.275 31.8209C241.768 30.0597 244.232 30.0597 244.725 31.8208C245.151 33.5616 246.539 34.8063 248.142 35.2644Z" fill="white" stroke="white" stroke-width="3"/>
<path d="M98.7226 118.628L56.6113 133.954L76.7702 189.344L118.881 174.018L98.7226 118.628Z" fill="#67AEFF" stroke="white" stroke-width="3" stroke-miterlimit="10" stroke-linecap="round" stroke-linejoin="round"/>
<path d="M147.481 122.116L105.37 137.442L125.529 192.831L167.64 177.505L147.481 122.116Z" fill="#67AEFF" stroke="white" stroke-width="3" stroke-miterlimit="10" stroke-linecap="round" stroke-linejoin="round"/>
<path d="M196.681 126.316L154.569 141.642L174.728 197.032L216.839 181.706L196.681 126.316Z" fill="#67AEFF" stroke="white" stroke-width="3" stroke-miterlimit="10" stroke-linecap="round" stroke-linejoin="round"/>
<path d="M174.75 196.957L167.644 177.497L125.495 192.839L118.47 173.379L76.3213 188.721L101.514 258L227.88 211.975L216.818 181.615L174.75 196.957Z" fill="#1067CD" stroke="white" stroke-width="3" stroke-miterlimit="10" stroke-linecap="round" stroke-linejoin="round"/>
<g filter="url(#filter1_d)">
<path d="M242.146 109.102C229.27 86.6807 176.478 92.9943 115.637 128.367C111.855 130.552 108.234 132.737 104.693 135.004L108.073 144.312C112.016 141.803 116.12 139.294 120.466 136.785C182.272 100.846 223.878 101.655 231.684 115.173C240.859 127.314 219.371 165.358 157.485 201.215C95.5989 237.073 55.0389 235.697 46.3474 222.827C39.7484 213.114 48.1984 195.145 71.0537 173.047L67.3517 163.01C39.1851 188.588 27.0331 213.519 35.8051 228.898C48.6813 251.319 101.474 245.006 162.314 209.634C223.154 174.342 255.103 131.523 242.146 109.102Z" fill="white"/>
<path d="M240.845 109.849L240.847 109.853C243.83 115.014 244.299 121.455 242.248 128.908C240.194 136.374 235.633 144.755 228.721 153.619C214.9 171.343 191.87 190.755 161.561 208.336L161.56 208.337C131.251 225.958 103.028 236.291 80.8611 239.453C69.7748 241.035 60.2817 240.811 52.8266 238.87C45.3861 236.931 40.0714 233.313 37.1072 228.153C33.0723 221.078 33.7165 211.572 39.0781 200.429C44.2162 189.751 53.582 177.819 66.7184 165.628L69.3087 172.651C58.1976 183.492 50.473 193.411 46.3079 201.922C42.081 210.559 41.3493 218.138 45.1055 223.668C47.5724 227.32 52.1505 229.96 58.3403 231.384C64.556 232.814 72.5645 233.062 82.1666 231.781C101.376 229.219 127.176 220.51 158.237 202.513C189.301 184.514 210.311 165.92 222.42 150.216C228.47 142.371 232.344 135.188 234.104 129.114C235.841 123.124 235.593 117.925 232.937 114.343C230.681 110.505 226.179 107.788 220.051 106.334C213.854 104.863 205.793 104.63 196.123 105.946C176.773 108.58 150.733 117.45 119.714 135.487C115.925 137.675 112.32 139.862 108.846 142.048L106.513 135.623C109.71 133.599 112.982 131.633 116.388 129.665L116.391 129.663C146.7 112.042 174.924 101.709 197.09 98.5467C208.176 96.9652 217.67 97.1887 225.125 99.1305C232.566 101.069 237.882 104.688 240.845 109.849Z" stroke="#D0D0D9" stroke-width="3"/>
</g>
<path d="M98.7226 118.628L56.6113 133.954L76.7702 189.344L118.881 174.018L98.7226 118.628Z" fill="#67AEFF" stroke="white" stroke-width="3" stroke-miterlimit="10" stroke-linecap="round" stroke-linejoin="round"/>
<path d="M93.7002 5L19.2002 19.3L44.0002 62.4L93.7002 5Z" fill="white" stroke="black" stroke-width="3" stroke-miterlimit="10" stroke-linecap="round" stroke-linejoin="round"/>
<path d="M87 12L25 23.7091L45.6389 59L87 12Z" fill="#FF5D71"/>
<path d="M93.7002 5L19.2002 19.3L44.0002 62.4L93.7002 5Z" stroke="black" stroke-width="3" stroke-miterlimit="10" stroke-linecap="round" stroke-linejoin="round"/>
<path d="M95.2996 150.5L94.7996 150.8C92.4996 152.1 89.6996 151.3 88.3996 149.1L16.2996 24.1001C14.9996 21.9001 15.6996 19 17.9996 17.7L18.4996 17.4C20.7996 16.1 23.5996 16.9001 24.8996 19.1001L96.9996 144C98.3996 146.3 97.5996 149.2 95.2996 150.5Z" fill="#F3D9DA" stroke="black" stroke-width="3" stroke-miterlimit="10" stroke-linecap="round" stroke-linejoin="round"/>
<path d="M152.5 141C188.675 141 218 111.675 218 75.5C218 39.3253 188.675 10 152.5 10C116.325 10 87 39.3253 87 75.5C87 111.675 116.325 141 152.5 141Z" fill="#67AEFF" stroke="black" stroke-width="3" stroke-miterlimit="10" stroke-linecap="round" stroke-linejoin="round"/>
<path d="M111.542 114.192L80.6777 114.282C74.088 114.276 68.8302 108.934 68.8247 102.418C68.878 95.8009 74.2361 90.4821 80.7249 90.4294L111.589 90.3389" fill="white"/>
<path d="M111.542 114.192L80.6777 114.282C74.088 114.276 68.8302 108.934 68.8247 102.418C68.878 95.8009 74.2361 90.4821 80.7249 90.4294L111.589 90.3389" stroke="black" stroke-width="3" stroke-miterlimit="10" stroke-linecap="round" stroke-linejoin="round"/>
<path d="M98.1614 113.026C91.5717 113.02 86.3139 107.678 86.3084 101.162C86.3617 94.5445 91.7198 89.2258 98.2087 89.1731" stroke="#FF4359" stroke-width="3" stroke-miterlimit="10" stroke-linecap="round" stroke-linejoin="round"/>
<path d="M111.542 114.192L80.6777 114.282C74.088 114.276 68.8302 108.934 68.8247 102.418C68.878 95.8009 74.2361 90.4821 80.7249 90.4294L111.589 90.3389" stroke="black" stroke-width="3" stroke-miterlimit="10" stroke-linecap="round" stroke-linejoin="round"/>
<path d="M134.65 150.326H137.017V121.593H157.679V157.428C157.679 163.347 152.836 168.082 147.025 168.082H137.017H134.327C129.269 168.082 125.287 163.993 125.395 158.935C125.502 154.092 129.699 150.326 134.65 150.326Z" fill="white" stroke="black" stroke-width="3" stroke-miterlimit="10" stroke-linecap="round" stroke-linejoin="round"/>
<path d="M156.628 150.863C154.583 151.832 152 152.477 149.095 152.477C145.221 152.477 141.777 151.401 139.517 149.679C138.979 149.249 138.549 148.818 138.118 148.28" stroke="#FF4359" stroke-width="3" stroke-miterlimit="10" stroke-linecap="round" stroke-linejoin="round"/>
<path d="M134.65 150.326H137.017V121.593H157.679V157.428C157.679 163.347 152.836 168.082 147.025 168.082H137.017H134.327C129.269 168.082 125.287 163.993 125.395 158.935C125.502 154.092 129.699 150.326 134.65 150.326Z" stroke="black" stroke-width="3" stroke-miterlimit="10" stroke-linecap="round" stroke-linejoin="round"/>
<path d="M185.863 145.602L187.537 143.928L167.22 123.61L181.83 109L207.17 134.34C211.355 138.525 211.279 145.297 207.17 149.407L200.093 156.483L198.19 158.386C194.614 161.962 188.907 161.886 185.407 158.234C182.058 154.733 182.363 149.102 185.863 145.602Z" fill="white" stroke="black" stroke-width="3" stroke-miterlimit="10" stroke-linecap="round" stroke-linejoin="round"/>
<path d="M201 128C202.983 130.205 201.073 135.066 196.732 138.972C193.338 142.025 189.535 143.513 186.988 142.904" stroke="#FF4359" stroke-width="3" stroke-miterlimit="10" stroke-linecap="round" stroke-linejoin="round"/>
<path d="M185.863 145.602L187.537 143.928L167.22 123.61L181.83 109L207.17 134.34C211.355 138.525 211.279 145.297 207.17 149.407L200.093 156.483L198.19 158.386C194.614 161.962 188.907 161.886 185.407 158.234C182.058 154.733 182.363 149.102 185.863 145.602Z" stroke="black" stroke-width="3" stroke-miterlimit="10" stroke-linecap="round" stroke-linejoin="round"/>
<path d="M133.06 34.5279C140.497 17.824 164.503 17.824 171.94 34.5279C173.766 38.5112 177.941 40.9525 182.377 40.4385C200.773 38.5112 212.776 58.9413 201.817 73.5894C199.207 77.0587 199.207 81.9413 201.817 85.4106C212.776 100.059 200.773 120.617 182.377 118.561C177.941 118.047 173.766 120.489 171.94 124.472C164.503 141.176 140.497 141.176 133.06 124.472C131.234 120.489 127.059 118.047 122.623 118.561C104.227 120.489 92.2242 100.059 103.183 85.4106C105.793 81.9413 105.793 77.0587 103.183 73.5894C92.2242 58.9413 104.227 38.3827 122.623 40.4385C127.059 40.9525 131.234 38.5112 133.06 34.5279Z" fill="white" stroke="black" stroke-width="3" stroke-miterlimit="10" stroke-linecap="round" stroke-linejoin="round"/>
<path d="M135.559 41.2207C142.231 26.2598 163.769 26.2598 170.441 41.2207C172.08 44.7883 175.826 46.9749 179.805 46.5145C196.31 44.7883 207.079 63.0866 197.247 76.2061C194.906 79.3134 194.906 83.6866 197.247 86.7939C207.079 99.9134 196.31 118.327 179.805 116.485C175.826 116.025 172.08 118.212 170.441 121.779C163.769 136.74 142.231 136.74 135.559 121.779C133.92 118.212 130.174 116.025 126.195 116.485C109.69 118.212 98.9208 99.9134 108.753 86.7939C111.094 83.6866 111.094 79.3134 108.753 76.2061C98.9208 63.0866 109.69 44.6732 126.195 46.5145C130.174 46.9749 133.92 44.7883 135.559 41.2207Z" fill="#FFC01E"/>
<path d="M133.06 34.5279C140.497 17.824 164.503 17.824 171.94 34.5279C173.766 38.5112 177.941 40.9525 182.377 40.4385C200.773 38.5112 212.776 58.9413 201.817 73.5894C199.207 77.0587 199.207 81.9413 201.817 85.4106C212.776 100.059 200.773 120.617 182.377 118.561C177.941 118.047 173.766 120.489 171.94 124.472C164.503 141.176 140.497 141.176 133.06 124.472C131.234 120.489 127.059 118.047 122.623 118.561C104.227 120.489 92.2242 100.059 103.183 85.4106C105.793 81.9413 105.793 77.0587 103.183 73.5894C92.2242 58.9413 104.227 38.3827 122.623 40.4385C127.059 40.9525 131.234 38.5112 133.06 34.5279Z" stroke="black" stroke-width="3" stroke-miterlimit="10" stroke-linecap="round" stroke-linejoin="round"/>
<path d="M148.467 71.4987C149.893 71.4987 151.049 70.3424 151.049 68.9159C151.049 67.4895 149.893 66.3332 148.467 66.3332C147.04 66.3332 145.884 67.4895 145.884 68.9159C145.884 70.3424 147.04 71.4987 148.467 71.4987Z" fill="black"/>
<path d="M160.089 71.4988C161.515 71.4988 162.671 70.3424 162.671 68.916C162.671 67.4896 161.515 66.3333 160.089 66.3333C158.662 66.3333 157.506 67.4896 157.506 68.916C157.506 70.3424 158.662 71.4988 160.089 71.4988Z" fill="black"/>
<path d="M145 75.9999C150.216 79.9999 158.784 79.9999 164 75.9999" stroke="black" stroke-width="3" stroke-miterlimit="10" stroke-linecap="round" stroke-linejoin="round"/>
<path d="M152.5 103.205C124.685 103.205 100.013 89.3083 85.3491 68C85.1164 70.2003 85 72.5164 85 74.8326C85 111.89 115.259 142 152.5 142C189.741 142 220 111.89 220 74.8326C220 72.5164 219.884 70.2003 219.651 68C204.987 89.3083 180.315 103.205 152.5 103.205Z" fill="white" stroke="black" stroke-width="3" stroke-miterlimit="10" stroke-linecap="round" stroke-linejoin="round"/>
<path d="M152.506 104C124.722 104 98.64 90.2152 82.8772 67.2025C82.0834 66.0633 81.8566 64.6962 82.0834 63.3291C82.3102 61.962 83.104 60.8228 84.238 60.0253C85.1452 59.4557 86.0524 59.1139 87.073 59.1139C88.7741 59.1139 90.3617 59.9114 91.2689 61.2785C105.104 81.557 128.011 93.6329 152.506 93.6329C177.001 93.6329 199.908 81.557 213.743 61.2785C214.65 59.9114 216.238 59 217.939 59C218.959 59 219.98 59.3418 220.774 59.9114C223.042 61.5063 223.722 64.6962 222.135 67.0886C206.372 90.2152 180.289 104 152.506 104Z" fill="#D0D0D9" stroke="black" stroke-width="3" stroke-miterlimit="10" stroke-linecap="round" stroke-linejoin="round"/>
<path d="M200 88.7636L209.491 79.2727C213.855 74.9091 220.836 74.9091 225.2 79.2727C229.564 83.6364 229.564 90.6182 225.2 94.9818L208.182 112" fill="white"/>
<path d="M200 88.7636L209.491 79.2727C213.855 74.9091 220.836 74.9091 225.2 79.2727C229.564 83.6364 229.564 90.6182 225.2 94.9818L208.182 112" stroke="black" stroke-width="3" stroke-miterlimit="10" stroke-linecap="round" stroke-linejoin="round"/>
<path d="M221.055 99.2363C216.691 103.6 209.71 103.6 205.346 99.2363C200.982 94.8726 200.982 87.8908 205.346 83.5272" stroke="#FF4359" stroke-width="3" stroke-miterlimit="10" stroke-linecap="round" stroke-linejoin="round"/>
<path d="M200 88.7636L209.491 79.2727C213.855 74.9091 220.836 74.9091 225.2 79.2727C229.564 83.6364 229.564 90.6182 225.2 94.9818L208.182 112" stroke="black" stroke-width="3" stroke-miterlimit="10" stroke-linecap="round" stroke-linejoin="round"/>
<path d="M19.6838 145.169L19.6935 145.171L19.7033 145.174C22.0989 145.824 22.0989 149.176 19.7033 149.826L19.6935 149.829L19.6838 149.831C17.8628 150.352 16.2986 151.763 15.821 153.721C15.1593 156.099 11.822 156.093 11.174 153.703L11.1713 153.693L11.1685 153.684C10.6483 151.863 9.23745 150.299 7.27853 149.821C4.9011 149.159 4.90717 145.822 7.29674 145.174L7.3065 145.171L7.31623 145.169C9.13722 144.648 10.7014 143.237 11.179 141.279C11.839 138.907 15.161 138.907 15.821 141.279C16.2986 143.237 17.8628 144.648 19.6838 145.169Z" fill="white" stroke="white" stroke-width="3"/>
<g filter="url(#filter2_d)">
<path d="M205.65 220.548C212.783 222.483 212.783 232.517 205.65 234.452C203.111 235.177 201.056 237.111 200.452 239.65C198.517 246.783 188.483 246.783 186.548 239.65C185.823 237.111 183.889 235.056 181.35 234.452C174.217 232.517 174.217 222.483 181.35 220.548C183.889 219.823 185.944 217.889 186.548 215.35C188.483 208.217 198.517 208.217 200.452 215.35C201.056 217.889 203.111 219.823 205.65 220.548Z" fill="white"/>
<path d="M205.238 221.991L205.248 221.993L205.258 221.996C210.914 223.53 210.914 231.47 205.258 233.004L205.248 233.007L205.238 233.009C202.256 233.861 199.752 236.157 198.998 239.278C197.451 244.914 189.528 244.907 187.996 239.258L187.993 239.248L187.991 239.238C187.139 236.256 184.843 233.752 181.722 232.998C176.086 231.451 176.093 223.528 181.742 221.996L181.752 221.993L181.762 221.991C184.744 221.139 187.248 218.843 188.002 215.722C189.547 210.093 197.453 210.093 198.998 215.722C199.752 218.843 202.256 221.139 205.238 221.991Z" stroke="#D0D0D9" stroke-width="3"/>
</g>
<circle cx="187" cy="53" r="10" fill="white"/>
</g>
<defs>
<filter id="filter0_d" x="-2" y="-1" width="273" height="273" filterUnits="userSpaceOnUse" color-interpolation-filters="sRGB">
<feFlood flood-opacity="0" result="BackgroundImageFix"/>
<feColorMatrix in="SourceAlpha" type="matrix" values="0 0 0 0 0 0 0 0 0 0 0 0 0 0 0 0 0 0 127 0" result="hardAlpha"/>
<feOffset dy="1"/>
<feGaussianBlur stdDeviation="2"/>
<feColorMatrix type="matrix" values="0 0 0 0 0 0 0 0 0 0 0 0 0 0 0 0 0 0 0.45 0"/>
<feBlend mode="normal" in2="BackgroundImageFix" result="effect1_dropShadow"/>
<feBlend mode="normal" in="SourceGraphic" in2="effect1_dropShadow" result="shape"/>
</filter>
<filter id="filter1_d" x="29" y="93" width="220" height="154" filterUnits="userSpaceOnUse" color-interpolation-filters="sRGB">
<feFlood flood-opacity="0" result="BackgroundImageFix"/>
<feColorMatrix in="SourceAlpha" type="matrix" values="0 0 0 0 0 0 0 0 0 0 0 0 0 0 0 0 0 0 127 0" result="hardAlpha"/>
<feOffset dy="1"/>
<feGaussianBlur stdDeviation="2"/>
<feColorMatrix type="matrix" values="0 0 0 0 0 0 0 0 0 0 0 0 0 0 0 0 0 0 0.45 0"/>
<feBlend mode="normal" in2="BackgroundImageFix" result="effect1_dropShadow"/>
<feBlend mode="normal" in="SourceGraphic" in2="effect1_dropShadow" result="shape"/>
</filter>
<filter id="filter2_d" x="172" y="207" width="43" height="43" filterUnits="userSpaceOnUse" color-interpolation-filters="sRGB">
<feFlood flood-opacity="0" result="BackgroundImageFix"/>
<feColorMatrix in="SourceAlpha" type="matrix" values="0 0 0 0 0 0 0 0 0 0 0 0 0 0 0 0 0 0 127 0" result="hardAlpha"/>
<feOffset dy="1"/>
<feGaussianBlur stdDeviation="2"/>
<feColorMatrix type="matrix" values="0 0 0 0 0 0 0 0 0 0 0 0 0 0 0 0 0 0 0.45 0"/>
<feBlend mode="normal" in2="BackgroundImageFix" result="effect1_dropShadow"/>
<feBlend mode="normal" in="SourceGraphic" in2="effect1_dropShadow" result="shape"/>
</filter>
</defs>
</svg>
