<svg width="375" height="340" viewBox="0 0 375 340" fill="none" xmlns="http://www.w3.org/2000/svg">
<g clip-path="url(#clip0_2319:3856)">
<path d="M185.24 51.4901C183.812 51.3507 182.37 51.5114 181.007 51.9619C179.645 52.4123 178.391 53.1425 177.327 54.1057C176.263 55.0688 175.412 56.2437 174.829 57.555C174.246 58.8662 173.943 60.2849 173.94 61.7201C173.857 59.0478 172.736 56.5129 170.817 54.6522C168.897 52.7914 166.328 51.7508 163.655 51.7508C160.981 51.7508 158.413 52.7914 156.493 54.6522C154.573 56.5129 153.453 59.0478 153.37 61.7201C153.367 60.2849 153.064 58.8662 152.481 57.555C151.897 56.2437 151.047 55.0688 149.983 54.1057C148.919 53.1425 147.665 52.4123 146.303 51.9619C144.94 51.5114 143.498 51.3507 142.07 51.4901C139.504 51.7952 137.14 53.0361 135.431 54.9753C133.723 56.9145 132.789 59.4157 132.81 62.0001V62.0001C132.81 64.6522 133.863 67.1958 135.739 69.0711C137.614 70.9465 140.158 72.0001 142.81 72.0001H184.58C187.232 72.0001 189.776 70.9465 191.651 69.0711C193.526 67.1958 194.58 64.6522 194.58 62.0001C194.598 59.4034 193.654 56.892 191.929 54.9509C190.204 53.0099 187.821 51.7769 185.24 51.4901V51.4901Z" fill="#EAEAEF" stroke="#EAEAEF" stroke-width="3" stroke-miterlimit="10"/>
<path fill-rule="evenodd" clip-rule="evenodd" d="M150 111.628V125.016C152.339 124.936 154.679 125.156 156.962 125.671L178.5 104L205 120.187V117H213V109H219V117H227V123H219V128.739L235.299 138.695L235.35 138.683L235.451 138.661L235.537 138.642C234.823 135.038 234.818 131.312 235.541 127.674C236.628 122.21 239.311 117.19 243.251 113.251C246.785 109.717 251.187 107.194 256 105.928V69H260.8V63H289.6V69H296V91H303V61H298V55H303V49.3C303 48.604 303.137 47.9148 303.403 47.2718C303.67 46.6288 304.06 46.0445 304.552 45.5523C305.044 45.0602 305.629 44.6698 306.272 44.4034C306.915 44.1371 307.604 44 308.3 44C308.996 44 309.685 44.1371 310.328 44.4034C310.971 44.6698 311.556 45.0602 312.048 45.5523C312.54 46.0445 312.93 46.6288 313.197 47.2718C313.463 47.9148 313.6 48.604 313.6 49.3C313.659 47.9329 314.244 46.6414 315.233 45.6951C316.221 44.7487 317.537 44.2204 318.905 44.2204C320.273 44.2204 321.589 44.7487 322.577 45.6951C323.566 46.6414 324.151 47.9329 324.21 49.3C324.215 47.896 324.775 46.551 325.768 45.5582C326.761 44.5653 328.106 44.0053 329.51 44C330.914 44.0053 332.259 44.5653 333.252 45.5582C334.245 46.551 334.805 47.896 334.81 49.3V55H348V69H359V91.2H359.2V105.073C362.193 105.289 365.148 105.984 367.95 107.144C373.098 109.276 377.497 112.887 380.592 117.52C383.688 122.152 385.34 127.599 385.34 133.17C385.332 140.639 382.362 147.799 377.08 153.08C373.79 156.371 369.77 158.764 365.4 160.103V160.364L369.573 171.035C379.23 173.015 386 177.627 386 183C386 184.999 385.062 186.894 383.387 188.586V270H378V310H377V339H-2V270H-17V171H-11.6655C-11.6636 170.333 -11.595 169.665 -11.4591 169.007C-11.1085 167.308 -10.3219 165.729 -9.17671 164.426C-9.47671 164.356 -9.76669 164.276 -10.0667 164.186C-12.5956 163.355 -14.6931 161.558 -15.9015 159.186C-17.1099 156.814 -17.3311 154.061 -16.5167 151.526C-15.9723 149.87 -15.0082 148.384 -13.7183 147.211C-12.4285 146.039 -10.8569 145.221 -9.15672 144.836C-9.35672 144.606 -9.54671 144.376 -9.7367 144.116C-11.2841 141.96 -11.9188 139.281 -11.5032 136.66C-11.0876 134.039 -9.65512 131.688 -7.5167 130.116C-6.10879 129.103 -4.46285 128.471 -2.73872 128.282C-1.01459 128.093 0.729168 128.353 2.32329 129.036C2.2733 128.736 2.2733 128.426 2.2733 128.116C2.24764 125.909 2.95337 123.754 4.28045 121.99C5.60752 120.225 7.4813 118.949 9.60952 118.361C11.3808 117.872 13.2455 117.882 15 118.379V69.6284H12V63.6284H61.027L101.894 41L145.788 65.3045V105.628H152V111.628H150ZM213 125.074V123H209.605L213 125.074ZM320 106.771C319.867 106.721 319.733 106.673 319.6 106.625V97H320V106.771Z" fill="#F2F2F5" stroke="#EAEAEF" stroke-width="3" stroke-linecap="round" stroke-linejoin="round"/>
<path d="M105.653 269.208H101.885V266.688H105.653V261.936H108.821V273.12H105.653V269.208ZM101.837 262.92C101.837 264.408 101.645 265.744 101.261 266.928C100.893 268.112 100.301 269.16 99.4846 270.072C98.6846 270.984 97.6526 271.768 96.3886 272.424C95.1246 273.08 93.6126 273.616 91.8526 274.032L90.7486 271.632C92.2526 271.312 93.4926 270.92 94.4686 270.456C95.4606 269.976 96.2606 269.432 96.8686 268.824L91.2766 269.256L90.8446 266.856L98.2366 266.592C98.3006 266.368 98.3486 266.152 98.3806 265.944C98.4286 265.736 98.4686 265.544 98.5006 265.368H91.9486V262.92H101.837ZM109.277 281.352V283.824H94.2766V277.68H105.701V276.408H94.2526V273.984H108.821V279.96H97.3966V281.352H109.277ZM130.923 261.936V284.112H127.731V272.472H124.275V269.904H127.731V261.936H130.923ZM116.307 276.408C117.811 276.392 119.219 276.344 120.531 276.264C121.843 276.168 123.203 276.008 124.611 275.784L124.899 278.352C123.267 278.608 121.667 278.784 120.099 278.88C118.531 278.96 116.835 279 115.011 279H113.187V269.64H119.955V266.352H113.139V263.832H123.099V272.112H116.307V276.408ZM152.857 275.376H149.665V261.96H152.857V275.376ZM148.201 273.84C147.385 273.984 146.577 274.104 145.777 274.2C144.977 274.28 144.153 274.344 143.305 274.392C142.457 274.424 141.561 274.448 140.617 274.464C139.689 274.48 138.673 274.488 137.569 274.488H135.625V267.648H142.657V265.776H135.601V263.256H145.777V270H138.745V271.944C139.657 271.944 140.505 271.936 141.289 271.92C142.089 271.904 142.849 271.872 143.569 271.824C144.305 271.776 145.017 271.712 145.705 271.632C146.409 271.552 147.121 271.448 147.841 271.32L148.201 273.84ZM145.417 275.784C146.601 275.784 147.657 275.88 148.585 276.072C149.529 276.248 150.321 276.52 150.961 276.888C151.617 277.24 152.121 277.672 152.473 278.184C152.825 278.696 153.001 279.28 153.001 279.936C153.001 280.592 152.825 281.176 152.473 281.688C152.121 282.2 151.617 282.632 150.961 282.984C150.321 283.352 149.529 283.624 148.585 283.8C147.657 283.992 146.601 284.088 145.417 284.088C144.249 284.088 143.193 283.992 142.249 283.8C141.321 283.624 140.529 283.352 139.873 282.984C139.233 282.632 138.737 282.2 138.385 281.688C138.033 281.176 137.857 280.592 137.857 279.936C137.857 279.28 138.033 278.696 138.385 278.184C138.737 277.672 139.233 277.24 139.873 276.888C140.529 276.52 141.321 276.248 142.249 276.072C143.193 275.88 144.249 275.784 145.417 275.784ZM145.417 281.64C148.361 281.64 149.833 281.072 149.833 279.936C149.833 278.816 148.361 278.256 145.417 278.256C142.489 278.256 141.025 278.816 141.025 279.936C141.025 281.072 142.489 281.64 145.417 281.64ZM174.023 271.056H159.119V262.536H162.263V264.48H170.879V262.536H174.023V271.056ZM170.879 266.856H162.263V268.584H170.879V266.856ZM168.119 274.992V276.864H174.143V284.088H170.975V279.36H158.783V276.864H164.951V274.992H156.575V272.472H176.567V274.992H168.119ZM204.107 278.928V281.496H184.091V278.928H192.491V275.184C191.515 275.072 190.619 274.848 189.803 274.512C188.987 274.176 188.283 273.752 187.691 273.24C187.115 272.728 186.659 272.128 186.323 271.44C186.003 270.752 185.843 270 185.843 269.184C185.843 268.256 186.051 267.416 186.467 266.664C186.883 265.912 187.459 265.272 188.195 264.744C188.931 264.216 189.803 263.808 190.811 263.52C191.819 263.232 192.907 263.088 194.075 263.088C195.259 263.088 196.355 263.232 197.363 263.52C198.371 263.808 199.243 264.216 199.979 264.744C200.715 265.272 201.291 265.912 201.707 266.664C202.123 267.416 202.331 268.256 202.331 269.184C202.331 270 202.163 270.752 201.827 271.44C201.507 272.128 201.051 272.728 200.459 273.24C199.867 273.752 199.163 274.176 198.347 274.512C197.531 274.848 196.635 275.072 195.659 275.184V278.928H204.107ZM188.963 269.184C188.963 269.744 189.083 270.248 189.323 270.696C189.579 271.144 189.931 271.52 190.379 271.824C190.827 272.128 191.363 272.36 191.987 272.52C192.627 272.68 193.323 272.76 194.075 272.76C194.843 272.76 195.539 272.68 196.163 272.52C196.787 272.36 197.323 272.128 197.771 271.824C198.235 271.52 198.587 271.144 198.827 270.696C199.083 270.248 199.211 269.744 199.211 269.184C199.211 268.624 199.083 268.12 198.827 267.672C198.587 267.224 198.235 266.848 197.771 266.544C197.323 266.24 196.787 266.008 196.163 265.848C195.539 265.688 194.843 265.608 194.075 265.608C193.323 265.608 192.627 265.688 191.987 265.848C191.363 266.008 190.827 266.24 190.379 266.544C189.931 266.848 189.579 267.224 189.323 267.672C189.083 268.12 188.963 268.624 188.963 269.184ZM210.729 265.392H207.921V262.896H224.361V265.392H221.553V269.112H224.193V271.632H208.065V269.112H210.729V265.392ZM218.409 265.392H213.873V269.112H218.409V265.392ZM226.137 273.36V275.88H206.169V273.36H226.137ZM211.761 281.16H223.905V283.68H208.593V277.344H211.761V281.16ZM252.644 261.936V284.04H249.644V261.936H252.644ZM245.252 262.32H248.204V283.056H245.252V276.216H242.732C242.316 277.288 241.764 278.12 241.076 278.712C240.388 279.288 239.588 279.576 238.676 279.576C237.94 279.576 237.276 279.392 236.684 279.024C236.092 278.656 235.588 278.128 235.172 277.44C234.756 276.752 234.436 275.912 234.212 274.92C233.988 273.912 233.876 272.784 233.876 271.536C233.876 270.288 233.988 269.168 234.212 268.176C234.436 267.184 234.756 266.344 235.172 265.656C235.588 264.968 236.092 264.44 236.684 264.072C237.276 263.704 237.94 263.52 238.676 263.52C239.588 263.52 240.38 263.808 241.052 264.384C241.74 264.944 242.292 265.76 242.708 266.832H245.252V262.32ZM238.676 276.6C239.284 276.6 239.756 276.184 240.092 275.352C240.444 274.504 240.62 273.232 240.62 271.536C240.62 269.84 240.444 268.576 240.092 267.744C239.756 266.912 239.284 266.496 238.676 266.496C238.052 266.496 237.564 266.912 237.212 267.744C236.876 268.576 236.708 269.84 236.708 271.536C236.708 273.232 236.876 274.504 237.212 275.352C237.564 276.184 238.052 276.6 238.676 276.6ZM245.252 273.648V269.376H243.308C243.404 270.048 243.452 270.768 243.452 271.536C243.452 271.904 243.436 272.272 243.404 272.64C243.388 272.992 243.364 273.328 243.332 273.648H245.252ZM271.074 267.288V261.96H274.242V275.112H271.074V269.856H267.762V267.288H271.074ZM267.546 274.512C266.346 274.112 265.33 273.544 264.498 272.808C263.666 272.056 263.01 271.192 262.53 270.216C262.05 271.336 261.37 272.328 260.49 273.192C259.626 274.04 258.546 274.68 257.25 275.112L255.642 272.616C256.522 272.312 257.282 271.92 257.922 271.44C258.562 270.944 259.09 270.4 259.506 269.808C259.938 269.2 260.258 268.56 260.466 267.888C260.69 267.2 260.818 266.512 260.85 265.824H256.506V263.28H268.386V265.824H264.09C264.106 266.448 264.218 267.072 264.426 267.696C264.634 268.32 264.938 268.912 265.338 269.472C265.754 270.016 266.274 270.512 266.898 270.96C267.522 271.408 268.25 271.768 269.082 272.04L267.546 274.512ZM266.778 275.592C267.946 275.592 268.994 275.688 269.922 275.88C270.866 276.072 271.658 276.352 272.298 276.72C272.954 277.072 273.458 277.512 273.81 278.04C274.162 278.568 274.338 279.168 274.338 279.84C274.338 280.512 274.162 281.112 273.81 281.64C273.458 282.168 272.954 282.608 272.298 282.96C271.658 283.328 270.866 283.608 269.922 283.8C268.994 283.992 267.946 284.088 266.778 284.088C265.61 284.088 264.554 283.992 263.61 283.8C262.666 283.608 261.866 283.328 261.21 282.96C260.57 282.608 260.074 282.168 259.722 281.64C259.37 281.112 259.194 280.512 259.194 279.84C259.194 279.168 259.37 278.568 259.722 278.04C260.074 277.512 260.57 277.072 261.21 276.72C261.866 276.352 262.666 276.072 263.61 275.88C264.554 275.688 265.61 275.592 266.778 275.592ZM266.778 281.688C269.706 281.688 271.17 281.072 271.17 279.84C271.17 278.608 269.706 277.992 266.778 277.992C263.834 277.992 262.362 278.608 262.362 279.84C262.362 281.072 263.834 281.688 266.778 281.688ZM282.401 276.912H280.097L279.593 267.096L279.473 263.76H283.025L282.905 267.096L282.401 276.912ZM283.025 282.336H279.521V278.928H283.025V282.336Z" fill="#B5B5C0"/>
<path d="M191.313 82.1195C188.28 83.0266 185.589 84.8245 183.591 87.2801C181.592 89.7356 180.378 92.7352 180.106 95.8896C178.777 96.4321 177.698 97.4493 177.078 98.7435C176.458 100.038 176.342 101.516 176.751 102.891C177.161 104.267 178.068 105.44 179.295 106.184C180.522 106.927 181.982 107.188 183.391 106.915C185.155 109.172 187.501 110.905 190.176 111.928C192.852 112.951 195.755 113.225 198.575 112.721C201.395 112.216 204.023 110.952 206.178 109.065C208.333 107.178 209.932 104.739 210.804 102.01C211.676 99.2818 211.787 96.3673 211.125 93.5803C210.464 90.7933 209.055 88.2395 207.051 86.1936C205.046 84.1477 202.521 82.6872 199.748 81.9694C196.975 81.2515 194.059 81.3034 191.313 82.1195V82.1195Z" fill="#EAEAEF" stroke="#D0D0D9" stroke-width="3" stroke-linecap="round" stroke-linejoin="round"/>
<path d="M196.704 92.4053C197.256 92.4053 197.704 91.9576 197.704 91.4053C197.704 90.853 197.256 90.4053 196.704 90.4053C196.152 90.4053 195.704 90.853 195.704 91.4053C195.704 91.9576 196.152 92.4053 196.704 92.4053Z" fill="#D0D0D9" stroke="#D0D0D9" stroke-width="2" stroke-linecap="round" stroke-linejoin="round"/>
<path d="M201.704 92.4053C202.256 92.4053 202.704 91.9576 202.704 91.4053C202.704 90.853 202.256 90.4053 201.704 90.4053C201.152 90.4053 200.704 90.853 200.704 91.4053C200.704 91.9576 201.152 92.4053 201.704 92.4053Z" fill="#D0D0D9" stroke="#D0D0D9" stroke-width="2" stroke-linecap="round" stroke-linejoin="round"/>
<path d="M196.524 95.9854C197.222 96.6827 198.168 97.0745 199.154 97.0745C200.141 97.0745 201.087 96.6827 201.784 95.9854" stroke="#D0D0D9" stroke-width="3" stroke-linecap="round" stroke-linejoin="round"/>
<path d="M192.954 114.115C195.251 114.115 197.114 112.252 197.114 109.955C197.114 107.657 195.251 105.795 192.954 105.795C190.656 105.795 188.794 107.657 188.794 109.955C188.794 112.252 190.656 114.115 192.954 114.115Z" fill="#EAEAEF" stroke="#D0D0D9" stroke-width="3" stroke-linecap="round" stroke-linejoin="round"/>
<path d="M200.364 118.115C202.662 118.115 204.524 116.252 204.524 113.955C204.524 111.657 202.662 109.795 200.364 109.795C198.067 109.795 196.204 111.657 196.204 113.955C196.204 116.252 198.067 118.115 200.364 118.115Z" fill="#EAEAEF" stroke="#D0D0D9" stroke-width="3" stroke-linecap="round" stroke-linejoin="round"/>
<path d="M81.2403 22.5496C79.8119 22.4103 78.3702 22.571 77.0076 23.0214C75.645 23.4718 74.3915 24.2021 73.3276 25.1652C72.2636 26.1284 71.4127 27.3033 70.8294 28.6146C70.2461 29.9258 69.9433 31.3445 69.9403 32.7796C69.857 30.1074 68.7368 27.5725 66.8171 25.7117C64.8974 23.8509 62.3288 22.8104 59.6553 22.8104C56.9818 22.8104 54.4132 23.8509 52.4935 25.7117C50.5738 27.5725 49.4536 30.1074 49.3703 32.7796C49.3673 31.3445 49.0645 29.9258 48.4812 28.6146C47.8978 27.3033 47.047 26.1284 45.983 25.1652C44.9191 24.2021 43.6656 23.4718 42.303 23.0214C40.9404 22.571 39.4987 22.4103 38.0703 22.5496C35.497 22.8555 33.1277 24.1022 31.4182 26.0498C29.7087 27.9974 28.7798 30.5084 28.8103 33.0996V33.0996C28.8103 34.4129 29.069 35.7132 29.5715 36.9265C30.074 38.1397 30.8106 39.2421 31.7392 40.1707C33.6146 42.0461 36.1581 43.0996 38.8103 43.0996H80.5403C81.8535 43.0996 83.1539 42.841 84.3671 42.3384C85.5804 41.8359 86.6828 41.0993 87.6114 40.1707C88.54 39.2421 89.2765 38.1397 89.7791 36.9265C90.2816 35.7132 90.5403 34.4129 90.5403 33.0996C90.5697 30.5022 89.6352 27.9862 87.9175 26.0376C86.1998 24.089 83.8209 22.8463 81.2403 22.5496V22.5496Z" fill="#EAEAEF" stroke="#EAEAEF" stroke-width="3" stroke-miterlimit="10"/>
<path d="M358.24 12.4901C356.812 12.3507 355.37 12.5114 354.007 12.9619C352.645 13.4123 351.391 14.1425 350.327 15.1057C349.263 16.0688 348.412 17.2437 347.829 18.555C347.246 19.8662 346.943 21.2849 346.94 22.7201C346.857 20.0478 345.736 17.5129 343.817 15.6522C341.897 13.7914 339.328 12.7508 336.655 12.7508C333.981 12.7508 331.413 13.7914 329.493 15.6522C327.573 17.5129 326.453 20.0478 326.37 22.7201C326.367 21.2849 326.064 19.8662 325.481 18.555C324.897 17.2437 324.047 16.0688 322.983 15.1057C321.919 14.1425 320.665 13.4123 319.303 12.9619C317.94 12.5114 316.498 12.3507 315.07 12.4901C312.504 12.7952 310.14 14.0361 308.431 15.9753C306.723 17.9145 305.789 20.4157 305.81 23.0001C305.81 25.6522 306.863 28.1958 308.739 30.0711C310.614 31.9465 313.158 33.0001 315.81 33.0001H357.58C360.232 33.0001 362.776 31.9465 364.651 30.0711C366.526 28.1958 367.58 25.6522 367.58 23.0001V23.0001C367.598 20.4034 366.654 17.892 364.929 15.9509C363.204 14.0099 360.821 12.7769 358.24 12.4901V12.4901Z" fill="#EAEAEF" stroke="#EAEAEF" stroke-width="3" stroke-miterlimit="10"/>
</g>
<defs>
<clipPath id="clip0_2319:3856">
<rect width="375" height="340" fill="white"/>
</clipPath>
</defs>
</svg>
