<svg width="24" height="24" viewBox="0 0 24 24" fill="none" xmlns="http://www.w3.org/2000/svg">
<rect width="24" height="24" fill="white"/>
<rect x="7.5" y="3" width="14" height="18" rx="3" stroke="black" stroke-width="2"/>
<path d="M2 14.6197C2 13.8262 2.36238 13.0761 2.98402 12.5829L6.00832 10.1835C6.88199 9.49032 8.11801 9.49032 8.99168 10.1835L12.016 12.5829C12.6376 13.0761 13 13.8262 13 14.6197V19C13 20.1046 12.1046 21 11 21H4C2.89543 21 2 20.1046 2 19V14.6197Z" fill="white" stroke="black" stroke-width="2"/>
<circle cx="7.5" cy="16" r="2" fill="black"/>
<rect x="15.5" y="6" width="2.6" height="2.6" rx="1" fill="black"/>
<rect x="11.5" y="6" width="2.6" height="2.6" rx="1" fill="black"/>
<rect x="15.5" y="10" width="2.6" height="2.6" rx="1" fill="black"/>
</svg>
