<svg width="12" height="12" viewBox="0 0 12 12" fill="none" xmlns="http://www.w3.org/2000/svg">
<path d="M6.89859 10.7293C6.89849 11.2256 6.49624 11.6278 6.00008 11.6278C5.7519 11.6278 5.52725 11.5272 5.36464 11.3646C5.20203 11.202 5.10147 10.9774 5.10147 10.7292L5.10149 6.89851L1.2707 6.89863C1.02262 6.89853 0.797966 6.79797 0.63536 6.63536C0.472754 6.47275 0.372193 6.2481 0.372094 6.00002C0.372196 5.50376 0.774446 5.10151 1.27061 5.10151L5.1015 5.1015L5.10141 1.27071C5.10151 0.774446 5.50376 0.372196 5.99992 0.372194C6.49628 0.372192 6.89853 0.774439 6.89843 1.2707L6.89851 5.10149L10.7292 5.10147C11.2255 5.10157 11.6278 5.50372 11.6277 5.99998C11.6278 6.49624 11.2256 6.89849 10.7292 6.89849L6.8985 6.8985L6.89859 10.7293Z" fill="#1067CD"/>
</svg>
