<svg width="24" height="24" viewBox="0 0 24 24" fill="none" xmlns="http://www.w3.org/2000/svg">
<rect width="24" height="24" fill="white"/>
<path d="M8.11302 19.0746C8.56635 19.6156 9.0367 20.1418 9.52331 20.6523C10.8795 22.0752 13.1214 22.0752 14.4776 20.6523C14.9642 20.1418 15.4346 19.6156 15.8879 19.0746C17.665 16.952 19.7753 13.791 19.7753 10.7788C19.7786 9.7573 19.5792 8.74532 19.1888 7.80141C18.7983 6.8575 18.2245 6.0004 17.5006 5.27971C16.4133 4.19144 15.0276 3.45017 13.5189 3.14972C12.0102 2.84928 10.4462 3.00316 9.02498 3.5919C7.60374 4.18063 6.38909 5.17776 5.53476 6.45708C4.68043 7.7364 4.22482 9.24041 4.22559 10.7788C4.22559 13.791 6.33591 16.952 8.11302 19.0746Z" stroke="black" stroke-width="2"/>
<circle cx="12" cy="11" r="3" fill="black"/>
</svg>
