<svg width="16" height="16" viewBox="0 0 16 16" fill="none" xmlns="http://www.w3.org/2000/svg">
<path d="M1.29371 1.29371C1.38658 1.20061 1.4969 1.12674 1.61836 1.07634C1.73981 1.02594 1.87002 1 2.00152 1C2.13302 1 2.26323 1.02594 2.38469 1.07634C2.50615 1.12674 2.61647 1.20061 2.70934 1.29371L7.99994 6.58631L13.2905 1.29371C13.3835 1.20076 13.4938 1.12702 13.6153 1.07672C13.7367 1.02642 13.8669 1.00052 13.9984 1.00052C14.1298 1.00052 14.26 1.02642 14.3814 1.07672C14.5029 1.12702 14.6132 1.20076 14.7062 1.29371C14.7991 1.38666 14.8729 1.49701 14.9232 1.61846C14.9735 1.7399 14.9994 1.87007 14.9994 2.00152C14.9994 2.13298 14.9735 2.26314 14.9232 2.38459C14.8729 2.50604 14.7991 2.61639 14.7062 2.70934L9.41357 7.99994L14.7062 13.2905C14.7991 13.3835 14.8729 13.4938 14.9232 13.6153C14.9735 13.7367 14.9994 13.8669 14.9994 13.9984C14.9994 14.1298 14.9735 14.26 14.9232 14.3814C14.8729 14.5029 14.7991 14.6132 14.7062 14.7062C14.6132 14.7991 14.5029 14.8729 14.3814 14.9232C14.26 14.9735 14.1298 14.9994 13.9984 14.9994C13.8669 14.9994 13.7367 14.9735 13.6153 14.9232C13.4938 14.8729 13.3835 14.7991 13.2905 14.7062L7.99994 9.41357L2.70934 14.7062C2.61639 14.7991 2.50604 14.8729 2.38459 14.9232C2.26314 14.9735 2.13298 14.9994 2.00152 14.9994C1.87007 14.9994 1.7399 14.9735 1.61846 14.9232C1.49701 14.8729 1.38666 14.7991 1.29371 14.7062C1.20076 14.6132 1.12702 14.5029 1.07672 14.3814C1.02642 14.26 1.00052 14.1298 1.00052 13.9984C1.00052 13.8669 1.02642 13.7367 1.07672 13.6153C1.12702 13.4938 1.20076 13.3835 1.29371 13.2905L6.58631 7.99994L1.29371 2.70934C1.20061 2.61647 1.12674 2.50615 1.07634 2.38469C1.02594 2.26323 1 2.13302 1 2.00152C1 1.87002 1.02594 1.73981 1.07634 1.61836C1.12674 1.4969 1.20061 1.38658 1.29371 1.29371Z" fill="#DB0B24" stroke="#DB0B24" stroke-width="0.2" stroke-linecap="round" stroke-linejoin="round"/>
</svg>
