<svg width="24" height="26" viewBox="0 0 24 26" fill="none" xmlns="http://www.w3.org/2000/svg">
<mask id="path-1-outside-1" maskUnits="userSpaceOnUse" x="0" y="0" width="24" height="26" fill="black">
<rect fill="white" width="24" height="26"/>
<path fill-rule="evenodd" clip-rule="evenodd" d="M7 2C4.23858 2 2 4.23858 2 7V14C2 16.7614 4.23858 19 7 19H15.5858C15.851 19 16.1054 19.1054 16.2929 19.2929L20.2929 23.2929C20.9229 23.9229 22 23.4767 22 22.5858V14V13V7C22 4.23858 19.7614 2 17 2H7Z"/>
</mask>
<path d="M3.8 7C3.8 5.23269 5.23269 3.8 7 3.8V0.2C3.24446 0.2 0.2 3.24446 0.2 7H3.8ZM3.8 14V7H0.2V14H3.8ZM7 17.2C5.23269 17.2 3.8 15.7673 3.8 14H0.2C0.2 17.7555 3.24446 20.8 7 20.8V17.2ZM15.5858 17.2H7V20.8H15.5858V17.2ZM21.5657 22.0201L17.5657 18.0201L15.0201 20.5657L19.0201 24.5657L21.5657 22.0201ZM20.2 14V22.5858H23.8V14H20.2ZM20.2 13V14H23.8V13H20.2ZM20.2 7V13H23.8V7H20.2ZM17 3.8C18.7673 3.8 20.2 5.23269 20.2 7H23.8C23.8 3.24446 20.7555 0.2 17 0.2V3.8ZM7 3.8H17V0.2H7V3.8ZM19.0201 24.5657C20.784 26.3296 23.8 25.0803 23.8 22.5858H20.2C20.2 21.8731 21.0617 21.5161 21.5657 22.0201L19.0201 24.5657ZM15.5858 20.8C15.3736 20.8 15.1701 20.7157 15.0201 20.5657L17.5657 18.0201C17.0406 17.495 16.3284 17.2 15.5858 17.2V20.8Z" fill="#1D85FF" mask="url(#path-1-outside-1)"/>
</svg>
