<svg width="162" height="193" viewBox="0 0 162 193" fill="none" xmlns="http://www.w3.org/2000/svg">
<g filter="url(#filter0_d)">
<path d="M75.6251 168.721H73.5017V142.532H54.6272V175.209C54.6272 180.635 58.9919 185 64.4184 185H73.5017H75.979C80.5797 185 84.2366 181.225 84.1187 176.624C84.0007 172.26 80.1078 168.721 75.6251 168.721Z" fill="white" stroke="black" stroke-width="3" stroke-miterlimit="10"/>
<path d="M78.1622 170.254H74.0194V148.431H60.5256V175.661C60.5256 180.183 64.1917 183.82 68.7494 183.82H76.3788H78.4595C82.3237 183.82 85.3952 180.675 85.2961 176.841C85.1971 173.203 81.9273 170.254 78.1622 170.254Z" fill="#FF9D0A"/>
<path d="M75.6251 168.721H73.5017V142.532H54.6272V175.209C54.6272 180.635 58.9919 185 64.4184 185H73.5017H75.979C80.5797 185 84.2366 181.225 84.1187 176.624C84.0007 172.26 80.1078 168.721 75.6251 168.721Z" stroke="black" stroke-width="3" stroke-miterlimit="10"/>
<path d="M57.9303 168.721H55.8069V142.532H36.9324V175.209C36.9324 180.635 41.2971 185 46.7235 185H55.8069H58.2842C62.8849 185 66.5418 181.225 66.4238 176.624C66.3059 172.26 62.413 168.721 57.9303 168.721Z" fill="white" stroke="black" stroke-width="3" stroke-miterlimit="10"/>
<path d="M60.4674 170.254H56.3246V148.431H42.8308V175.661C42.8308 180.183 46.4968 183.82 51.0546 183.82H58.6839H60.7647C64.6288 183.82 67.7004 180.675 67.6013 176.841C67.5022 173.203 64.2325 170.254 60.4674 170.254Z" fill="#FF9D0A"/>
<path d="M57.9303 168.721H55.8069V142.532H36.9324V175.209C36.9324 180.635 41.2971 185 46.7235 185H55.8069H58.2842C62.8849 185 66.5418 181.225 66.4238 176.624C66.3059 172.26 62.413 168.721 57.9303 168.721Z" stroke="black" stroke-width="3" stroke-miterlimit="10"/>
<path d="M85.0408 8.18783L88.8157 6.89021C103.915 2.05361 120.313 8.77765 127.508 22.9336L129.396 26.4725C130.576 28.9498 132.581 30.8373 135.058 32.1349L138.597 34.0224C152.753 41.2183 159.477 57.6155 154.641 72.7152L153.343 76.4901C152.517 79.0853 152.517 81.9165 153.343 84.3938L154.641 88.1687C159.477 103.268 152.753 119.666 138.597 126.861L135.058 128.749C132.581 129.929 130.694 131.934 129.396 134.411L127.508 137.95C120.313 152.106 103.915 158.83 88.8157 153.994L85.0408 152.696C82.4455 151.87 79.6143 151.87 77.1371 152.696L73.3621 153.994C58.2625 158.83 41.8653 152.106 34.6693 137.95L32.7819 134.411C31.6022 131.934 29.5968 130.047 27.1195 128.749L23.5805 126.861C9.42464 119.666 2.70058 103.268 7.53718 88.1687L8.83481 84.3938C9.66057 81.7985 9.66057 78.9674 8.83481 76.4901L7.53718 72.7152C2.70058 57.6155 9.42464 41.2183 23.5805 34.0224L27.1195 32.1349C29.5968 30.9552 31.4843 28.9498 32.7819 26.4725L34.6693 22.9336C41.8653 8.77765 58.2625 2.05361 73.3621 6.89021L77.1371 8.18783C79.7323 9.13155 82.4455 9.13155 85.0408 8.18783Z" fill="white" stroke="black" stroke-width="3" stroke-miterlimit="10"/>
<path d="M89.2093 11.7561L92.7526 10.5036C106.926 5.83501 122.317 12.3254 129.071 25.9896L130.842 29.4056C131.95 31.7968 133.832 33.6187 136.157 34.8712L139.479 36.6931C152.766 43.639 159.078 59.4666 154.538 74.0417L153.32 77.6854C152.545 80.1905 152.545 82.9233 153.32 85.3146L154.538 88.9583C159.078 103.533 152.766 119.361 139.479 126.307L136.157 128.129C133.832 129.267 132.06 131.203 130.842 133.594L129.071 137.01C122.317 150.675 106.926 157.165 92.7526 152.496L89.2093 151.244C86.7734 150.447 84.1159 150.447 81.7907 151.244L78.2474 152.496C64.0744 157.165 48.6835 150.675 41.9292 137.01L40.1575 133.594C39.0503 131.203 37.1679 129.381 34.8427 128.129L31.5209 126.307C18.2337 119.361 11.9223 103.533 16.4621 88.9583L17.6801 85.3146C18.4552 82.8095 18.4552 80.0767 17.6801 77.6854L16.4621 74.0417C11.9223 59.4666 18.2337 43.639 31.5209 36.6931L34.8427 34.8712C37.1679 33.7326 38.9396 31.7968 40.1575 29.4056L41.9292 25.9896C48.6835 12.3254 64.0744 5.83501 78.2474 10.5036L81.7907 11.7561C84.2267 12.667 86.7734 12.667 89.2093 11.7561Z" fill="#FF9D0A"/>
<path d="M85.0408 8.18783L88.8157 6.89021C103.915 2.05361 120.313 8.77765 127.508 22.9336L129.396 26.4725C130.576 28.9498 132.581 30.8373 135.058 32.1349L138.597 34.0224C152.753 41.2183 159.477 57.6155 154.641 72.7152L153.343 76.4901C152.517 79.0853 152.517 81.9165 153.343 84.3938L154.641 88.1687C159.477 103.268 152.753 119.666 138.597 126.861L135.058 128.749C132.581 129.929 130.694 131.934 129.396 134.411L127.508 137.95C120.313 152.106 103.915 158.83 88.8157 153.994L85.0408 152.696C82.4455 151.87 79.6143 151.87 77.1371 152.696L73.3621 153.994C58.2625 158.83 41.8653 152.106 34.6693 137.95L32.7819 134.411C31.6022 131.934 29.5968 130.047 27.1195 128.749L23.5805 126.861C9.42464 119.666 2.70058 103.268 7.53718 88.1687L8.83481 84.3938C9.66057 81.7985 9.66057 78.9674 8.83481 76.4901L7.53718 72.7152C2.70058 57.6155 9.42464 41.2183 23.5805 34.0224L27.1195 32.1349C29.5968 30.9552 31.4843 28.9498 32.7819 26.4725L34.6693 22.9336C41.8653 8.77765 58.2625 2.05361 73.3621 6.89021L77.1371 8.18783C79.7323 9.13155 82.4455 9.13155 85.0408 8.18783Z" stroke="black" stroke-width="3" stroke-miterlimit="10"/>
<path d="M111.482 128.573C104.45 130.438 100.425 137.529 101.53 144.532V144.7L101.569 144.867C102.089 147.121 104.202 148.725 106.664 148.374C109.177 148.015 110.796 145.663 110.285 143.188C109.819 140.417 111.365 137.858 113.775 137.255L113.796 137.25L113.818 137.244C116.684 136.438 119.515 138.294 120.075 141.26L127.266 181.928C127.637 184.421 129.971 186.024 132.432 185.525C134.918 185.141 136.511 182.802 136 180.342L128.809 139.668L128.808 139.663C127.363 131.651 119.458 126.321 111.482 128.573Z" fill="#F3D9DA" stroke="black" stroke-width="3" stroke-miterlimit="10"/>
<path d="M90.9391 113.861L102.382 125.304C106.275 129.197 106.275 135.567 102.382 139.46C98.4889 143.353 92.1188 143.353 88.2259 139.46L76.7832 128.017" fill="#FF9D0A"/>
<path d="M90.9391 113.861L102.382 125.304C106.275 129.197 106.275 135.567 102.382 139.46C98.4889 143.353 92.1188 143.353 88.2259 139.46L76.7832 128.017" stroke="black" stroke-width="3" stroke-miterlimit="10" stroke-linecap="round"/>
<path d="M113.353 85.0775C114.656 85.0775 115.712 84.0212 115.712 82.7182C115.712 81.4152 114.656 80.3589 113.353 80.3589C112.05 80.3589 110.993 81.4152 110.993 82.7182C110.993 84.0212 112.05 85.0775 113.353 85.0775Z" fill="black"/>
<path d="M123.97 85.0775C125.273 85.0775 126.329 84.0212 126.329 82.7182C126.329 81.4152 125.273 80.3589 123.97 80.3589C122.667 80.3589 121.61 81.4152 121.61 82.7182C121.61 84.0212 122.667 85.0775 123.97 85.0775Z" fill="black"/>
<path d="M94.478 80.3589L102.382 82.6002" stroke="#F67600" stroke-width="3" stroke-miterlimit="10" stroke-linecap="round"/>
<path d="M94.478 89.4424L102.382 88.2627" stroke="#F67600" stroke-width="3" stroke-miterlimit="10" stroke-linecap="round"/>
<path d="M140.485 80.3589L132.581 82.6002" stroke="#F67600" stroke-width="3" stroke-miterlimit="10" stroke-linecap="round"/>
<path d="M140.485 89.4424L132.581 88.2627" stroke="#F67600" stroke-width="3" stroke-miterlimit="10" stroke-linecap="round"/>
<path d="M95.8936 71.5115C100.022 75.6404 106.746 75.6404 110.875 71.5116" stroke="#F67600" stroke-width="3" stroke-miterlimit="10" stroke-linecap="round"/>
<path d="M125.975 63.2539C121.846 59.1251 115.122 59.1251 110.993 63.2539" stroke="#F67600" stroke-width="3" stroke-miterlimit="10" stroke-linecap="round"/>
<path d="M125.857 97.464C121.728 93.3352 115.004 93.3352 110.875 97.464" stroke="black" stroke-width="3" stroke-miterlimit="10" stroke-linecap="round"/>
<path d="M125.975 71.5115C130.104 75.6404 136.828 75.6404 140.957 71.5116" stroke="#F67600" stroke-width="3" stroke-miterlimit="10" stroke-linecap="round"/>
<path d="M95.8936 63.254C100.022 67.3828 106.746 67.3828 110.875 63.254" stroke="#F67600" stroke-width="3" stroke-miterlimit="10" stroke-linecap="round"/>
<path d="M125.975 71.5115C121.846 67.3827 115.122 67.3827 110.993 71.5115" stroke="#F67600" stroke-width="3" stroke-miterlimit="10" stroke-linecap="round"/>
<path d="M125.975 63.254C130.104 67.3828 136.828 67.3828 140.957 63.254" stroke="#F67600" stroke-width="3" stroke-miterlimit="10" stroke-linecap="round"/>
</g>
<defs>
<filter id="filter0_d" x="0.479492" y="0.832516" width="161.219" height="191.284" filterUnits="userSpaceOnUse" color-interpolation-filters="sRGB">
<feFlood flood-opacity="0" result="BackgroundImageFix"/>
<feColorMatrix in="SourceAlpha" type="matrix" values="0 0 0 0 0 0 0 0 0 0 0 0 0 0 0 0 0 0 127 0"/>
<feOffset dy="1"/>
<feGaussianBlur stdDeviation="2"/>
<feColorMatrix type="matrix" values="0 0 0 0 0 0 0 0 0 0 0 0 0 0 0 0 0 0 0.45 0"/>
<feBlend mode="normal" in2="BackgroundImageFix" result="effect1_dropShadow"/>
<feBlend mode="normal" in="SourceGraphic" in2="effect1_dropShadow" result="shape"/>
</filter>
</defs>
</svg>
