<svg width="60" height="60" viewBox="0 0 60 60" fill="none" xmlns="http://www.w3.org/2000/svg">
<g filter="url(#filter0_d)">
<path d="M4 23C4 11.9543 12.9543 3 24 3H36C47.0457 3 56 11.9543 56 23V35C56 46.0457 47.0457 55 36 55H12C7.58172 55 4 51.4183 4 47V23Z" fill="white"/>
<path d="M5.5 23C5.5 12.7827 13.7827 4.5 24 4.5H36C46.2173 4.5 54.5 12.7827 54.5 23V35C54.5 45.2173 46.2173 53.5 36 53.5H12C8.41015 53.5 5.5 50.5899 5.5 47V23Z" stroke="#D0D0D9" stroke-width="3"/>
</g>
<g filter="url(#filter1_d)">
<path d="M24.2625 21.2497C24.1197 18.3938 26.3968 16 29.2562 16H29.7438C32.6032 16 34.8803 18.3938 34.7375 21.2497L34.2247 31.5056C34.0988 34.0233 32.0208 36 29.5 36C26.9792 36 24.9012 34.0233 24.7753 31.5056L24.2625 21.2497Z" fill="#FF4359" stroke="black" stroke-width="3"/>
<path d="M30 36H29C26.7909 36 25 37.7909 25 40C25 42.2091 26.7909 44 29 44H30C32.2091 44 34 42.2091 34 40C34 37.7909 32.2091 36 30 36Z" fill="#FF4359" stroke="black" stroke-width="3"/>
</g>
<defs>
<filter id="filter0_d" x="0" y="0" width="60" height="60" filterUnits="userSpaceOnUse" color-interpolation-filters="sRGB">
<feFlood flood-opacity="0" result="BackgroundImageFix"/>
<feColorMatrix in="SourceAlpha" type="matrix" values="0 0 0 0 0 0 0 0 0 0 0 0 0 0 0 0 0 0 127 0"/>
<feOffset dy="1"/>
<feGaussianBlur stdDeviation="2"/>
<feColorMatrix type="matrix" values="0 0 0 0 0 0 0 0 0 0 0 0 0 0 0 0 0 0 0.45 0"/>
<feBlend mode="normal" in2="BackgroundImageFix" result="effect1_dropShadow"/>
<feBlend mode="normal" in="SourceGraphic" in2="effect1_dropShadow" result="shape"/>
</filter>
<filter id="filter1_d" x="18.7561" y="11.5" width="21.4878" height="39" filterUnits="userSpaceOnUse" color-interpolation-filters="sRGB">
<feFlood flood-opacity="0" result="BackgroundImageFix"/>
<feColorMatrix in="SourceAlpha" type="matrix" values="0 0 0 0 0 0 0 0 0 0 0 0 0 0 0 0 0 0 127 0"/>
<feOffset dy="1"/>
<feGaussianBlur stdDeviation="2"/>
<feColorMatrix type="matrix" values="0 0 0 0 0 0 0 0 0 0 0 0 0 0 0 0 0 0 0.35 0"/>
<feBlend mode="normal" in2="BackgroundImageFix" result="effect1_dropShadow"/>
<feBlend mode="normal" in="SourceGraphic" in2="effect1_dropShadow" result="shape"/>
</filter>
</defs>
</svg>
