<svg width="113" height="88" viewBox="0 0 113 88" fill="none" xmlns="http://www.w3.org/2000/svg">
<g filter="url(#filter0_d)">
<path d="M4 33C4 16.4315 17.4315 3 34 3H79C95.5685 3 109 16.4315 109 33V53C109 69.5685 95.5685 83 79 83H12C7.58172 83 4 79.4183 4 75V33Z" fill="white"/>
<path d="M5.5 33C5.5 17.2599 18.2599 4.5 34 4.5H79C94.7401 4.5 107.5 17.2599 107.5 33V53C107.5 68.7401 94.7401 81.5 79 81.5H12C8.41015 81.5 5.5 78.5899 5.5 75V33Z" stroke="#D0D0D9" stroke-width="3"/>
</g>
<defs>
<filter id="filter0_d" x="0" y="0" width="113" height="88" filterUnits="userSpaceOnUse" color-interpolation-filters="sRGB">
<feFlood flood-opacity="0" result="BackgroundImageFix"/>
<feColorMatrix in="SourceAlpha" type="matrix" values="0 0 0 0 0 0 0 0 0 0 0 0 0 0 0 0 0 0 127 0" result="hardAlpha"/>
<feOffset dy="1"/>
<feGaussianBlur stdDeviation="2"/>
<feColorMatrix type="matrix" values="0 0 0 0 0 0 0 0 0 0 0 0 0 0 0 0 0 0 0.45 0"/>
<feBlend mode="normal" in2="BackgroundImageFix" result="effect1_dropShadow"/>
<feBlend mode="normal" in="SourceGraphic" in2="effect1_dropShadow" result="shape"/>
</filter>
</defs>
</svg>
