<svg width="195" height="200" viewBox="0 0 195 200" fill="none" xmlns="http://www.w3.org/2000/svg">
<g filter="url(#filter0_d)">
<path d="M158.985 124.265L157.747 125.502L142.227 110L131 121.214L150.4 140.591C153.619 143.807 158.82 143.807 162.04 140.591L167.488 135.149L168.974 133.665C171.698 130.944 171.616 126.491 168.809 123.853C166.002 121.296 161.627 121.626 158.985 124.265Z" fill="white" stroke="black" stroke-width="3" stroke-miterlimit="10" stroke-linecap="round" stroke-linejoin="round"/>
<path d="M157.286 127.602L156.264 128.614L143.449 115.932L134.179 125.106L150.197 140.958C152.855 143.589 157.15 143.589 159.808 140.958L164.307 136.506L165.534 135.292C167.783 133.066 167.715 129.423 165.397 127.265C163.08 125.173 159.467 125.443 157.286 127.602Z" fill="#3BE529"/>
<path d="M158.985 124.265L157.747 125.502L142.227 110L131 121.214L150.4 140.591C153.619 143.807 158.82 143.807 162.04 140.591L167.488 135.149L168.974 133.665C171.698 130.944 171.616 126.491 168.809 123.853C166.002 121.296 161.627 121.626 158.985 124.265Z" stroke="black" stroke-width="3" stroke-miterlimit="10" stroke-linecap="round" stroke-linejoin="round"/>
<path d="M148.806 129.333L147.568 130.57L132.048 115.068L120.821 126.282L140.221 145.66C143.44 148.875 148.641 148.875 151.861 145.66L157.309 140.217L158.795 138.733C161.519 136.012 161.437 131.56 158.63 128.921C155.823 126.365 151.448 126.695 148.806 129.333Z" fill="white" stroke="black" stroke-width="3" stroke-miterlimit="10" stroke-linecap="round" stroke-linejoin="round"/>
<path d="M147.107 132.67L146.085 133.682L133.27 121L124 130.174L140.018 146.027C142.677 148.658 146.971 148.658 149.629 146.027L154.128 141.575L155.355 140.36C157.604 138.134 157.536 134.492 155.218 132.333C152.901 130.242 149.288 130.512 147.107 132.67Z" fill="#3BE529"/>
<path d="M148.806 129.333L147.568 130.57L132.048 115.068L120.821 126.282L140.221 145.66C143.44 148.875 148.641 148.875 151.861 145.66L157.309 140.217L158.795 138.733C161.519 136.012 161.437 131.56 158.63 128.921C155.823 126.365 151.448 126.695 148.806 129.333Z" stroke="black" stroke-width="3" stroke-miterlimit="10" stroke-linecap="round" stroke-linejoin="round"/>
<path d="M165.399 93.3C178.53 93.3 189.174 82.668 189.174 69.5525C189.174 56.4372 178.53 45.8052 165.399 45.8052C152.269 45.8052 141.624 56.4372 141.624 69.5525C141.624 82.668 152.269 93.3 165.399 93.3Z" fill="#3BE529" stroke="black" stroke-width="3" stroke-miterlimit="10"/>
<path d="M109.759 4.8245C82.3517 4.8245 58.9068 21.8929 49.4133 45.8876C37.4432 47.1245 28.1147 57.2666 28.1147 69.5525C28.1147 81.839 37.4432 91.981 49.4133 93.217C58.9068 117.295 82.3517 134.281 109.759 134.281C145.587 134.281 174.563 105.339 174.563 69.5525C174.563 33.7666 145.587 4.8245 109.759 4.8245Z" fill="white" stroke="black" stroke-width="3" stroke-miterlimit="10"/>
<path d="M113.05 9C86.8489 9 64.4363 25.2172 55.3608 48.0153C43.9177 49.1904 35 58.8268 35 70.5C35 82.173 43.9177 91.81 55.3608 92.985C64.4363 115.861 86.8489 132 113.05 132C147.3 132 175 104.501 175 70.5C175 36.4987 147.3 9 113.05 9Z" fill="#3BE529"/>
<path d="M109.759 4.8245C82.3517 4.8245 58.9068 21.8929 49.4133 45.8876C37.4432 47.1245 28.1147 57.2666 28.1147 69.5525C28.1147 81.838 37.4432 91.981 49.4133 93.217C58.9068 117.295 82.3517 134.281 109.759 134.281C145.587 134.281 174.563 105.339 174.563 69.5525C174.563 33.7666 145.587 4.8245 109.759 4.8245Z" stroke="black" stroke-width="3" stroke-miterlimit="10"/>
<path d="M137.332 50.0929C138.426 50.0929 139.313 49.2069 139.313 48.114C139.313 47.021 138.426 46.135 137.332 46.135C136.237 46.135 135.35 47.021 135.35 48.114C135.35 49.2069 136.237 50.0929 137.332 50.0929Z" fill="black"/>
<path d="M146.247 50.0929C147.341 50.0929 148.228 49.2069 148.228 48.114C148.228 47.021 147.341 46.135 146.247 46.135C145.153 46.135 144.266 47.021 144.266 48.114C144.266 49.2069 145.153 50.0929 146.247 50.0929Z" fill="black"/>
<path d="M147.898 60.8122C144.431 57.3491 138.735 57.3491 135.268 60.8122" stroke="black" stroke-width="3" stroke-miterlimit="10" stroke-linecap="round"/>
<path d="M63.6571 157.568L75.3544 138.254H127.569L148.926 173.645L149.703 174.933L150.988 174.152L155.198 171.596L156.476 170.82L155.705 169.54L134.456 134.276V121.5C134.456 113.674 128.1 107.219 120.243 107.219H63.1441L51.7387 85.195C51.7382 85.194 51.7377 85.193 51.7373 85.192C48.011 77.9276 40.5598 73.4124 32.4075 73.4124H20.6851H19.1851V74.9124V79.8597V81.36H20.6851H31.9122C37.3722 81.36 42.3939 84.423 44.9456 89.292C44.9462 89.294 44.9469 89.295 44.9475 89.296L68.3329 134.552L56.8809 153.458L56.1045 154.74L57.3854 155.517L61.5956 158.073L62.8792 158.853L63.6571 157.568ZM75.0907 130.307L67.2361 115.167H120.161C123.643 115.167 126.487 117.969 126.421 121.472V121.492V121.512L126.479 128.795C126.486 129.628 125.812 130.307 124.979 130.307H75.0907Z" fill="white" stroke="black" stroke-width="3" stroke-miterlimit="10"/>
<path d="M20.7674 82.333H9.87051C7.64159 82.333 5.82544 80.5193 5.82544 78.293V75.6544C5.82544 73.428 7.64159 71.614 9.87051 71.614H20.7674C22.9963 71.614 24.8125 73.428 24.8125 75.6544V78.293C24.8125 80.5193 22.9963 82.333 20.7674 82.333Z" fill="black" stroke="black" stroke-width="2" stroke-miterlimit="10"/>
<path d="M62.7866 159.693C67.7167 159.693 71.7164 155.7 71.7164 150.772C71.7164 145.843 67.7167 141.851 62.7866 141.851C57.8566 141.851 53.8569 145.843 53.8569 150.772C53.8569 155.7 57.8566 159.693 62.7866 159.693Z" fill="#FF9D0A" stroke="black" stroke-width="3" stroke-miterlimit="10"/>
<path d="M153.594 192.675C163.54 192.675 171.605 184.622 171.605 174.684C171.605 164.746 163.54 156.693 153.594 156.693C143.649 156.693 135.584 164.746 135.584 174.684C135.584 184.622 143.649 192.675 153.594 192.675Z" fill="#3F3F45" stroke="black" stroke-width="3" stroke-miterlimit="10"/>
<path d="M153.5 182.5C157.918 182.5 161.5 178.918 161.5 174.5C161.5 170.082 157.918 166.5 153.5 166.5C149.082 166.5 145.5 170.082 145.5 174.5C145.5 178.918 149.082 182.5 153.5 182.5Z" fill="#FF9D0A" stroke="black" stroke-width="3" stroke-miterlimit="10"/>
<path d="M62.7866 108.868C39.5881 108.868 20.8359 127.596 20.8359 150.772C20.8359 173.948 39.5881 192.675 62.7866 192.675C85.9851 192.675 104.737 173.948 104.737 150.772C104.737 127.596 85.9851 108.868 62.7866 108.868ZM62.7866 182.254C45.3693 182.254 31.2657 168.165 31.2657 150.772C31.2657 133.379 45.3693 119.289 62.7866 119.289C80.2039 119.289 94.3076 133.379 94.3076 150.772C94.3076 168.165 80.2039 182.254 62.7866 182.254Z" fill="#3F3F45" stroke="black" stroke-width="3" stroke-miterlimit="10"/>
<path d="M73 105.393L60.6 117.793C56.3241 122.069 49.4828 122.069 45.2069 117.793C40.931 113.517 40.931 106.676 45.2069 102.4L57.6069 90" fill="#3BE529"/>
<path d="M73 105.393L60.6 117.793C56.3241 122.069 49.4828 122.069 45.2069 117.793C40.931 113.517 40.931 106.676 45.2069 102.4L57.6069 90" stroke="black" stroke-width="3" stroke-miterlimit="10" stroke-linecap="round" stroke-linejoin="round"/>
</g>
<defs>
<filter id="filter0_d" x="0.825439" y="0.324499" width="193.849" height="198.851" filterUnits="userSpaceOnUse" color-interpolation-filters="sRGB">
<feFlood flood-opacity="0" result="BackgroundImageFix"/>
<feColorMatrix in="SourceAlpha" type="matrix" values="0 0 0 0 0 0 0 0 0 0 0 0 0 0 0 0 0 0 127 0"/>
<feOffset dy="1"/>
<feGaussianBlur stdDeviation="2"/>
<feColorMatrix type="matrix" values="0 0 0 0 0 0 0 0 0 0 0 0 0 0 0 0 0 0 0.45 0"/>
<feBlend mode="normal" in2="BackgroundImageFix" result="effect1_dropShadow"/>
<feBlend mode="normal" in="SourceGraphic" in2="effect1_dropShadow" result="shape"/>
</filter>
</defs>
</svg>
